<svg xmlns="http://www.w3.org/2000/svg" xmlns:xlink="http://www.w3.org/1999/xlink" version="1.1" width="595.276" height="841.89" viewBox="0 0 595.276 841.89">
<g>
<text xml:space="preserve" transform="matrix(1 0 0 1 14.173229 14.173229)" font-size="24" font-family="DFKai" font-weight="bold"><tspan y="30.553" x="209.353 233.353 257.353 281.353 305.353 329.353">&#x570b;&#x7acb;&#x6c38;&#x9756;&#x9ad8;&#x5de5;</tspan></text>
<text xml:space="preserve" transform="matrix(1 0 0 1 14.173229 14.173229)" font-size="19" font-family="DFKai" font-weight="bold"><tspan y="55.328" x="161.915 171.415 180.915 190.415 209.415 228.415 247.415 256.91499 275.91499 294.91499 313.91499 323.41499 342.41499 361.41499 380.41499">113&#x5b78;&#x5e74;&#x5ea6; &#x4e0a;&#x5b78;&#x671f; &#x73ed;&#x7d1a;&#x8ab2;&#x8868;</tspan></text>
<text xml:space="preserve" transform="matrix(1 0 0 1 14.173229 14.173229)" font-size="16" font-family="DFKai" font-weight="bold"><tspan y="75.715" x="50.201997 66.201999 82.201999 90.201999 98.201999 106.201999 122.201999 138.202 408.671 416.671 432.671 448.671 456.671 464.671 480.671 496.671 512.671">&#x73ed;&#x7d1a; : &#x8cc7;&#x8a0a;&#x4e00; &#x5c0e;&#x5e2b;: &#x9673;&#x7f8e;&#x7489; </tspan></text>
<text xml:space="preserve" transform="matrix(1 0 0 1 14.173229 14.173229)" font-size="14" font-family="DFKai"><tspan y="100.498" x="102.21698 116.21698">&#x661f;&#x671f;</tspan></text>
<path transform="matrix(1,0,0,1,14.173229,14.173229)" d="M46.189 85.761V107.603H50.189V85.761Z" fill-rule="evenodd"/>
<path transform="matrix(1,0,0,1,14.173229,14.173229)" d="M133.978 85.761V107.603H132.478V85.761Z" fill-rule="evenodd"/>
<path transform="matrix(1,0,0,1,14.173229,14.173229)" d="M46.189 85.761H133.978V89.761H46.189Z" fill-rule="evenodd"/>
<text xml:space="preserve" transform="matrix(1 0 0 1 14.173229 14.173229)" font-size="12" font-family="DFKai"><tspan y="110.017" x="165.487">&#x4e00;</tspan></text>
<path transform="matrix(1,0,0,1,14.173229,14.173229)" d="M132.728 85.761V128.196H133.728V85.761Z" fill-rule="evenodd"/>
<path transform="matrix(1,0,0,1,14.173229,14.173229)" d="M210.264 85.761V128.196H209.264V85.761Z" fill-rule="evenodd"/>
<path transform="matrix(1,0,0,1,14.173229,14.173229)" d="M132.728 85.761H210.264V89.761H132.728Z" fill-rule="evenodd"/>
<path transform="matrix(1,0,0,1,14.173229,14.173229)" d="M132.728 128.196H210.264V126.696H132.728Z" fill-rule="evenodd"/>
<text xml:space="preserve" transform="matrix(1 0 0 1 14.173229 14.173229)" font-size="12" font-family="DFKai"><tspan y="110.017" x="242.022">&#x4e8c;</tspan></text>
<path transform="matrix(1,0,0,1,14.173229,14.173229)" d="M209.264 85.761V128.196H210.264V85.761Z" fill-rule="evenodd"/>
<path transform="matrix(1,0,0,1,14.173229,14.173229)" d="M286.799 85.761V128.196H285.799V85.761Z" fill-rule="evenodd"/>
<path transform="matrix(1,0,0,1,14.173229,14.173229)" d="M209.264 85.761H286.799V89.761H209.264Z" fill-rule="evenodd"/>
<path transform="matrix(1,0,0,1,14.173229,14.173229)" d="M209.264 128.196H286.799V126.696H209.264Z" fill-rule="evenodd"/>
<text xml:space="preserve" transform="matrix(1 0 0 1 14.173229 14.173229)" font-size="12" font-family="DFKai"><tspan y="110.017" x="318.558">&#x4e09;</tspan></text>
<path transform="matrix(1,0,0,1,14.173229,14.173229)" d="M285.799 85.761V128.196H286.799V85.761Z" fill-rule="evenodd"/>
<path transform="matrix(1,0,0,1,14.173229,14.173229)" d="M363.335 85.761V128.196H362.335V85.761Z" fill-rule="evenodd"/>
<path transform="matrix(1,0,0,1,14.173229,14.173229)" d="M285.799 85.761H363.335V89.761H285.799Z" fill-rule="evenodd"/>
<path transform="matrix(1,0,0,1,14.173229,14.173229)" d="M285.799 128.196H363.335V126.696H285.799Z" fill-rule="evenodd"/>
<text xml:space="preserve" transform="matrix(1 0 0 1 14.173229 14.173229)" font-size="12" font-family="DFKai"><tspan y="110.017" x="395.121">&#x56db;</tspan></text>
<path transform="matrix(1,0,0,1,14.173229,14.173229)" d="M362.363 85.761V128.196H363.363V85.761Z" fill-rule="evenodd"/>
<path transform="matrix(1,0,0,1,14.173229,14.173229)" d="M439.898 85.761V128.196H438.898V85.761Z" fill-rule="evenodd"/>
<path transform="matrix(1,0,0,1,14.173229,14.173229)" d="M362.363 85.761H439.898V89.761H362.363Z" fill-rule="evenodd"/>
<path transform="matrix(1,0,0,1,14.173229,14.173229)" d="M362.363 128.196H439.898V126.696H362.363Z" fill-rule="evenodd"/>
<text xml:space="preserve" transform="matrix(1 0 0 1 14.173229 14.173229)" font-size="12" font-family="DFKai"><tspan y="110.017" x="471.657">&#x4e94;</tspan></text>
<path transform="matrix(1,0,0,1,14.173229,14.173229)" d="M438.898 85.761V128.196H439.898V85.761Z" fill-rule="evenodd"/>
<path transform="matrix(1,0,0,1,14.173229,14.173229)" d="M517.934 85.761V128.196H513.934V85.761Z" fill-rule="evenodd"/>
<path transform="matrix(1,0,0,1,14.173229,14.173229)" d="M438.898 85.761H517.934V89.761H438.898Z" fill-rule="evenodd"/>
<path transform="matrix(1,0,0,1,14.173229,14.173229)" d="M438.898 128.196H517.934V126.696H438.898Z" fill-rule="evenodd"/>
<path transform="matrix(1,0,0,1,14.173229,14.173229)" d="M132.728 126.946V169.937H133.728V126.946Z" fill-rule="evenodd"/>
<path transform="matrix(1,0,0,1,14.173229,14.173229)" d="M132.728 126.946H209.764V127.946H132.728Z" fill-rule="evenodd"/>
<text xml:space="preserve" transform="matrix(1 0 0 1 14.173229 14.173229)" font-size="12" font-family="MicrosoftJhengHei,Bold" font-weight="bold"><tspan y="202.915" x="135.298 147.298 159.298 171.298 183.298 195.298">&#x73fe;&#x4ee3;&#x6587;&#x5b78;&#x8cde;&#x6790;</tspan></text>
<text xml:space="preserve" transform="matrix(1 0 0 1 14.173229 14.173229)" font-size="9" font-family="EUDC2"><tspan y="213.17299" x="157.80501 166.80501 175.80501">&#x767d;&#x54f2;&#x7dad;</tspan></text>
<path transform="matrix(1,0,0,1,14.173229,14.173229)" d="M132.728 170.146V236.154H133.728V170.146Z" fill-rule="evenodd"/>
<path transform="matrix(1,0,0,1,14.173229,14.173229)" d="M132.728 170.146H209.764V171.146H132.728Z" fill-rule="evenodd"/>
<text xml:space="preserve" transform="matrix(1 0 0 1 14.173229 14.173229)" font-size="10" font-family="MicrosoftJhengHei,Bold" font-weight="bold"><tspan y="256.776" x="141.307 151.307 161.307 171.307 181.307 191.307">&#x96fb;&#x5b78;&#x521d;&#x968e;&#x5be6;&#x7fd2;</tspan></text>
<text xml:space="preserve" transform="matrix(1 0 0 1 14.173229 14.173229)" font-size="8" font-family="EUDC2"><tspan y="265.72" x="159.307 167.307 175.307">&#x66fe;&#x4e16;&#x8679;</tspan></text>
<text xml:space="preserve" transform="matrix(1 0 0 1 14.173229 14.173229)" font-size="10" font-family="MicrosoftJhengHei,Bold" font-weight="bold"><tspan y="279.652" x="141.307 151.307 161.307 171.307 181.307 191.307">&#x7a0b;&#x5f0f;&#x8a2d;&#x8a08;&#x5be6;&#x7fd2;</tspan></text>
<text xml:space="preserve" transform="matrix(1 0 0 1 14.173229 14.173229)" font-size="8" font-family="EUDC2"><tspan y="288.596" x="159.307 167.307 175.307">&#x9673;&#x4f73;&#x5b8f;</tspan></text>
<path transform="matrix(1,0,0,1,14.173229,14.173229)" d="M132.728 235.654V301.663H133.728V235.654Z" fill-rule="evenodd"/>
<path transform="matrix(1,0,0,1,14.173229,14.173229)" d="M132.728 235.654H209.764V236.654H132.728Z" fill-rule="evenodd"/>
<text xml:space="preserve" transform="matrix(1 0 0 1 14.173229 14.173229)" font-size="10" font-family="MicrosoftJhengHei,Bold" font-weight="bold"><tspan y="387.821" x="141.307 151.307 161.307 171.307 181.307 191.307">&#x96fb;&#x5b78;&#x521d;&#x968e;&#x5be6;&#x7fd2;</tspan></text>
<text xml:space="preserve" transform="matrix(1 0 0 1 14.173229 14.173229)" font-size="8" font-family="EUDC2"><tspan y="396.765" x="159.307 167.307 175.307">&#x66fe;&#x4e16;&#x8679;</tspan></text>
<text xml:space="preserve" transform="matrix(1 0 0 1 14.173229 14.173229)" font-size="10" font-family="MicrosoftJhengHei,Bold" font-weight="bold"><tspan y="410.69703" x="141.307 151.307 161.307 171.307 181.307 191.307">&#x7a0b;&#x5f0f;&#x8a2d;&#x8a08;&#x5be6;&#x7fd2;</tspan></text>
<text xml:space="preserve" transform="matrix(1 0 0 1 14.173229 14.173229)" font-size="8" font-family="EUDC2"><tspan y="419.64103" x="159.307 167.307 175.307">&#x9673;&#x4f73;&#x5b8f;</tspan></text>
<path transform="matrix(1,0,0,1,14.173229,14.173229)" d="M132.728 366.7V432.709H133.728V366.7Z" fill-rule="evenodd"/>
<path transform="matrix(1,0,0,1,14.173229,14.173229)" d="M132.728 366.7H209.764V367.7H132.728Z" fill-rule="evenodd"/>
<text xml:space="preserve" transform="matrix(1 0 0 1 14.173229 14.173229)" font-size="10" font-family="MicrosoftJhengHei,Bold" font-weight="bold"><tspan y="322.313" x="141.307 151.307 161.307 171.307 181.307 191.307">&#x96fb;&#x5b78;&#x521d;&#x968e;&#x5be6;&#x7fd2;</tspan></text>
<text xml:space="preserve" transform="matrix(1 0 0 1 14.173229 14.173229)" font-size="8" font-family="EUDC2"><tspan y="331.257" x="159.307 167.307 175.307">&#x66fe;&#x4e16;&#x8679;</tspan></text>
<text xml:space="preserve" transform="matrix(1 0 0 1 14.173229 14.173229)" font-size="10" font-family="MicrosoftJhengHei,Bold" font-weight="bold"><tspan y="345.189" x="141.307 151.307 161.307 171.307 181.307 191.307">&#x7a0b;&#x5f0f;&#x8a2d;&#x8a08;&#x5be6;&#x7fd2;</tspan></text>
<text xml:space="preserve" transform="matrix(1 0 0 1 14.173229 14.173229)" font-size="8" font-family="EUDC2"><tspan y="354.133" x="159.307 167.307 175.307">&#x9673;&#x4f73;&#x5b8f;</tspan></text>
<path transform="matrix(1,0,0,1,14.173229,14.173229)" d="M132.728 301.191V367.2H133.728V301.191Z" fill-rule="evenodd"/>
<path transform="matrix(1,0,0,1,14.173229,14.173229)" d="M132.728 301.191H209.764V302.191H132.728Z" fill-rule="evenodd"/>
<text xml:space="preserve" transform="matrix(1 0 0 1 14.173229 14.173229)" font-size="10" font-family="MicrosoftJhengHei,Bold" font-weight="bold"><tspan y="539.588" x="141.307 151.307 161.307 171.307 181.307 191.307">&#x96fb;&#x5b78;&#x521d;&#x968e;&#x5be6;&#x7fd2;</tspan></text>
<text xml:space="preserve" transform="matrix(1 0 0 1 14.173229 14.173229)" font-size="8" font-family="EUDC2"><tspan y="548.532" x="159.307 167.307 175.307">&#x66fe;&#x4e16;&#x8679;</tspan></text>
<text xml:space="preserve" transform="matrix(1 0 0 1 14.173229 14.173229)" font-size="10" font-family="MicrosoftJhengHei,Bold" font-weight="bold"><tspan y="562.464" x="141.307 151.307 161.307 171.307 181.307 191.307">&#x7a0b;&#x5f0f;&#x8a2d;&#x8a08;&#x5be6;&#x7fd2;</tspan></text>
<text xml:space="preserve" transform="matrix(1 0 0 1 14.173229 14.173229)" font-size="8" font-family="EUDC2"><tspan y="571.40798" x="159.307 167.307 175.307">&#x9673;&#x4f73;&#x5b8f;</tspan></text>
<path transform="matrix(1,0,0,1,14.173229,14.173229)" d="M132.728 518.467V584.476H133.728V518.467Z" fill-rule="evenodd"/>
<path transform="matrix(1,0,0,1,14.173229,14.173229)" d="M132.728 518.467H209.764V519.467H132.728Z" fill-rule="evenodd"/>
<text xml:space="preserve" transform="matrix(1 0 0 1 14.173229 14.173229)" font-size="10" font-family="MicrosoftJhengHei,Bold" font-weight="bold"><tspan y="474.08" x="141.307 151.307 161.307 171.307 181.307 191.307">&#x96fb;&#x5b78;&#x521d;&#x968e;&#x5be6;&#x7fd2;</tspan></text>
<text xml:space="preserve" transform="matrix(1 0 0 1 14.173229 14.173229)" font-size="8" font-family="EUDC2"><tspan y="483.024" x="159.307 167.307 175.307">&#x66fe;&#x4e16;&#x8679;</tspan></text>
<text xml:space="preserve" transform="matrix(1 0 0 1 14.173229 14.173229)" font-size="10" font-family="MicrosoftJhengHei,Bold" font-weight="bold"><tspan y="496.956" x="141.307 151.307 161.307 171.307 181.307 191.307">&#x7a0b;&#x5f0f;&#x8a2d;&#x8a08;&#x5be6;&#x7fd2;</tspan></text>
<text xml:space="preserve" transform="matrix(1 0 0 1 14.173229 14.173229)" font-size="8" font-family="EUDC2"><tspan y="505.9" x="159.307 167.307 175.307">&#x9673;&#x4f73;&#x5b8f;</tspan></text>
<path transform="matrix(1,0,0,1,14.173229,14.173229)" d="M132.728 452.958V518.967H133.728V452.958Z" fill-rule="evenodd"/>
<path transform="matrix(1,0,0,1,14.173229,14.173229)" d="M132.728 452.958H209.764V453.958H132.728Z" fill-rule="evenodd"/>
<text xml:space="preserve" transform="matrix(1 0 0 1 14.173229 14.173229)" font-size="10" font-family="MicrosoftJhengHei,Bold" font-weight="bold"><tspan y="605.125" x="141.307 151.307 161.307 171.307 181.307 191.307">&#x96fb;&#x5b78;&#x521d;&#x968e;&#x5be6;&#x7fd2;</tspan></text>
<text xml:space="preserve" transform="matrix(1 0 0 1 14.173229 14.173229)" font-size="8" font-family="EUDC2"><tspan y="614.069" x="159.307 167.307 175.307">&#x66fe;&#x4e16;&#x8679;</tspan></text>
<text xml:space="preserve" transform="matrix(1 0 0 1 14.173229 14.173229)" font-size="10" font-family="MicrosoftJhengHei,Bold" font-weight="bold"><tspan y="628.001" x="141.307 151.307 161.307 171.307 181.307 191.307">&#x7a0b;&#x5f0f;&#x8a2d;&#x8a08;&#x5be6;&#x7fd2;</tspan></text>
<text xml:space="preserve" transform="matrix(1 0 0 1 14.173229 14.173229)" font-size="8" font-family="EUDC2"><tspan y="636.94497" x="159.307 167.307 175.307">&#x9673;&#x4f73;&#x5b8f;</tspan></text>
<path transform="matrix(1,0,0,1,14.173229,14.173229)" d="M132.728 584.004V650.013H133.728V584.004Z" fill-rule="evenodd"/>
<path transform="matrix(1,0,0,1,14.173229,14.173229)" d="M132.728 584.004H209.764V585.004H132.728Z" fill-rule="evenodd"/>
<path transform="matrix(1,0,0,1,14.173229,14.173229)" d="M132.728 649.513V717.521H133.728V649.513Z" fill-rule="evenodd"/>
<path transform="matrix(1,0,0,1,14.173229,14.173229)" d="M210.264 649.513V717.521H209.264V649.513Z" fill-rule="evenodd"/>
<path transform="matrix(1,0,0,1,14.173229,14.173229)" d="M132.728 649.513H210.264V650.513H132.728Z" fill-rule="evenodd"/>
<path transform="matrix(1,0,0,1,14.173229,14.173229)" d="M132.728 717.521H210.264V713.521H132.728Z" fill-rule="evenodd"/>
<text xml:space="preserve" transform="matrix(1 0 0 1 14.173229 14.173229)" font-size="12" font-family="DFKai"><tspan y="445.512" x="171.496"> </tspan></text>
<path transform="matrix(1,0,0,1,14.173229,14.173229)" d="M132.728 432.237V453.458H133.728V432.237Z" fill-rule="evenodd"/>
<path transform="matrix(1,0,0,1,14.173229,14.173229)" d="M132.728 432.237H209.764V433.237H132.728Z" fill-rule="evenodd"/>
<text xml:space="preserve" transform="matrix(1 0 0 1 14.173229 14.173229)" font-size="14" font-family="DFKai"><tspan y="118.863" x="99.383 113.383">&#x6642;&#x9593;</tspan></text>
<path transform="matrix(1,0,0,1,14.173229,14.173229)" d="M133.978 107.603V128.196H132.478V107.603Z" fill-rule="evenodd"/>
<path transform="matrix(1,0,0,1,14.173229,14.173229)" d="M93.543 128.196H133.978V126.696H93.543Z" fill-rule="evenodd"/>
<text xml:space="preserve" transform="matrix(1 0 0 1 14.173229 14.173229)" font-size="14" font-family="DFKai"><tspan y="118.863" x="56.863 70.863">&#x7bc0;&#x6b21;</tspan></text>
<path transform="matrix(1,0,0,1,14.173229,14.173229)" d="M46.189 107.603V128.196H50.189V107.603Z" fill-rule="evenodd"/>
<path transform="matrix(1,0,0,1,14.173229,14.173229)" d="M46.189 128.196H93.543V126.696H46.189Z" fill-rule="evenodd"/>
<text xml:space="preserve" transform="matrix(1 0 0 1 14.173229 14.173229)" font-size="10" font-family="DFKai"><tspan y="137.253" x="100.885 105.885 110.885 115.885 120.885">07:30</tspan></text>
<path transform="matrix(1,0,0,1,14.173229,14.173229)" d="M93.043 126.946V143.036H94.043V126.946Z" fill-rule="evenodd"/>
<path transform="matrix(1,0,0,1,14.173229,14.173229)" d="M93.043 126.946H133.228V127.946H93.043Z" fill-rule="evenodd"/>
<text xml:space="preserve" transform="matrix(1 0 0 1 14.173229 14.173229)" font-size="10" font-family="DFKai"><tspan y="151.072" x="110.877">|</tspan></text>
<path transform="matrix(1,0,0,1,14.173229,14.173229)" d="M93.043 143.065V155.055H94.043V143.065Z" fill-rule="evenodd"/>
<text xml:space="preserve" transform="matrix(1 0 0 1 14.173229 14.173229)" font-size="10" font-family="DFKai"><tspan y="164.862" x="100.885 105.885 110.885 115.885 120.885">08:10</tspan></text>
<path transform="matrix(1,0,0,1,14.173229,14.173229)" d="M93.043 155.055V170.646H94.043V155.055Z" fill-rule="evenodd"/>
<text xml:space="preserve" transform="matrix(1 0 0 1 14.173229 14.173229)" font-size="14" font-family="DFKai"><tspan y="218.947" x="52.526">&#x4e0a;</tspan><tspan y="386.838" x="52.526">&#x5348;</tspan></text>
<path transform="matrix(1,0,0,1,14.173229,14.173229)" d="M46.189 170.146V432.51H50.189V170.146Z" fill-rule="evenodd"/>
<path transform="matrix(1,0,0,1,14.173229,14.173229)" d="M46.189 170.146H70.866V171.146H46.189Z" fill-rule="evenodd"/>
<text xml:space="preserve" transform="matrix(1 0 0 1 14.173229 14.173229)" font-size="12" font-family="DFKai"><tspan y="142.408" x="52.866 64.866 76.866">&#x81ea;&#x4e3b;&#x5b78;</tspan><tspan y="156.79901" x="64.857">&#x7fd2;</tspan></text>
<path transform="matrix(1,0,0,1,14.173229,14.173229)" d="M46.189 126.946V169.937H50.189V126.946Z" fill-rule="evenodd"/>
<path transform="matrix(1,0,0,1,14.173229,14.173229)" d="M46.189 126.946H93.543V127.946H46.189Z" fill-rule="evenodd"/>
<text xml:space="preserve" transform="matrix(1 0 0 1 14.173229 14.173229)" font-size="12" font-family="DFKai"><tspan y="184.242" x="98.376 104.376 110.376 116.376 122.376">08:10</tspan></text>
<path transform="matrix(1,0,0,1,14.173229,14.173229)" d="M93.043 170.146V193.011H94.043V170.146Z" fill-rule="evenodd"/>
<path transform="matrix(1,0,0,1,14.173229,14.173229)" d="M93.043 170.146H133.228V171.146H93.043Z" fill-rule="evenodd"/>
<text xml:space="preserve" transform="matrix(1 0 0 1 14.173229 14.173229)" font-size="12" font-family="DFKai"><tspan y="205.715" x="110.381">|</tspan></text>
<path transform="matrix(1,0,0,1,14.173229,14.173229)" d="M93.043 193.011V213.591H94.043V193.011Z" fill-rule="evenodd"/>
<text xml:space="preserve" transform="matrix(1 0 0 1 14.173229 14.173229)" font-size="12" font-family="DFKai"><tspan y="227.386" x="98.376 104.376 110.376 116.376 122.376">09:00</tspan></text>
<path transform="matrix(1,0,0,1,14.173229,14.173229)" d="M93.043 213.789V236.154H94.043V213.789Z" fill-rule="evenodd"/>
<text xml:space="preserve" transform="matrix(1 0 0 1 14.173229 14.173229)" font-size="14" font-family="DFKai"><tspan y="187.925" x="75.203">&#x7b2c;</tspan><tspan y="204.714" x="75.203">&#x4e00;</tspan><tspan y="221.503" x="75.203">&#x7bc0;</tspan></text>
<path transform="matrix(1,0,0,1,14.173229,14.173229)" d="M70.366 170.146V236.154H71.366V170.146Z" fill-rule="evenodd"/>
<path transform="matrix(1,0,0,1,14.173229,14.173229)" d="M70.366 170.146H93.543V171.146H70.366Z" fill-rule="evenodd"/>
<text xml:space="preserve" transform="matrix(1 0 0 1 14.173229 14.173229)" font-size="12" font-family="DFKai"><tspan y="249.751" x="98.376 104.376 110.376 116.376 122.376">09:10</tspan></text>
<path transform="matrix(1,0,0,1,14.173229,14.173229)" d="M93.043 235.654V258.52H94.043V235.654Z" fill-rule="evenodd"/>
<path transform="matrix(1,0,0,1,14.173229,14.173229)" d="M93.043 235.654H133.228V236.654H93.043Z" fill-rule="evenodd"/>
<text xml:space="preserve" transform="matrix(1 0 0 1 14.173229 14.173229)" font-size="12" font-family="DFKai"><tspan y="271.224" x="110.381">|</tspan></text>
<path transform="matrix(1,0,0,1,14.173229,14.173229)" d="M93.043 258.52V279.099H94.043V258.52Z" fill-rule="evenodd"/>
<text xml:space="preserve" transform="matrix(1 0 0 1 14.173229 14.173229)" font-size="12" font-family="DFKai"><tspan y="292.696" x="98.376 104.376 110.376 116.376 122.376">10:00</tspan></text>
<path transform="matrix(1,0,0,1,14.173229,14.173229)" d="M93.043 279.099V301.465H94.043V279.099Z" fill-rule="evenodd"/>
<text xml:space="preserve" transform="matrix(1 0 0 1 14.173229 14.173229)" font-size="14" font-family="DFKai"><tspan y="253.434" x="75.203">&#x7b2c;</tspan><tspan y="270.223" x="75.203">&#x4e8c;</tspan><tspan y="287.012" x="75.203">&#x7bc0;</tspan></text>
<path transform="matrix(1,0,0,1,14.173229,14.173229)" d="M70.366 235.654V301.663H71.366V235.654Z" fill-rule="evenodd"/>
<path transform="matrix(1,0,0,1,14.173229,14.173229)" d="M70.366 235.654H93.543V236.654H70.366Z" fill-rule="evenodd"/>
<text xml:space="preserve" transform="matrix(1 0 0 1 14.173229 14.173229)" font-size="12" font-family="DFKai"><tspan y="315.288" x="98.376 104.376 110.376 116.376 122.376">10:10</tspan></text>
<path transform="matrix(1,0,0,1,14.173229,14.173229)" d="M93.043 301.191V324.057H94.043V301.191Z" fill-rule="evenodd"/>
<path transform="matrix(1,0,0,1,14.173229,14.173229)" d="M93.043 301.191H133.228V302.191H93.043Z" fill-rule="evenodd"/>
<text xml:space="preserve" transform="matrix(1 0 0 1 14.173229 14.173229)" font-size="12" font-family="DFKai"><tspan y="336.761" x="110.381">|</tspan></text>
<path transform="matrix(1,0,0,1,14.173229,14.173229)" d="M93.043 324.057V344.636H94.043V324.057Z" fill-rule="evenodd"/>
<text xml:space="preserve" transform="matrix(1 0 0 1 14.173229 14.173229)" font-size="12" font-family="DFKai"><tspan y="358.233" x="98.376 104.376 110.376 116.376 122.376">11:00</tspan></text>
<path transform="matrix(1,0,0,1,14.173229,14.173229)" d="M93.043 344.636V367.002H94.043V344.636Z" fill-rule="evenodd"/>
<text xml:space="preserve" transform="matrix(1 0 0 1 14.173229 14.173229)" font-size="14" font-family="DFKai"><tspan y="318.942" x="75.203">&#x7b2c;</tspan><tspan y="335.731" x="75.203">&#x4e09;</tspan><tspan y="352.52" x="75.203">&#x7bc0;</tspan></text>
<path transform="matrix(1,0,0,1,14.173229,14.173229)" d="M70.366 301.163V367.172H71.366V301.163Z" fill-rule="evenodd"/>
<path transform="matrix(1,0,0,1,14.173229,14.173229)" d="M70.366 301.163H93.543V302.163H70.366Z" fill-rule="evenodd"/>
<text xml:space="preserve" transform="matrix(1 0 0 1 14.173229 14.173229)" font-size="12" font-family="DFKai"><tspan y="380.797" x="98.376 104.376 110.376 116.376 122.376">11:10</tspan></text>
<path transform="matrix(1,0,0,1,14.173229,14.173229)" d="M93.043 366.7V389.565H94.043V366.7Z" fill-rule="evenodd"/>
<path transform="matrix(1,0,0,1,14.173229,14.173229)" d="M93.043 366.7H133.228V367.7H93.043Z" fill-rule="evenodd"/>
<text xml:space="preserve" transform="matrix(1 0 0 1 14.173229 14.173229)" font-size="12" font-family="DFKai"><tspan y="402.269" x="110.381">|</tspan></text>
<path transform="matrix(1,0,0,1,14.173229,14.173229)" d="M93.043 389.565V410.145H94.043V389.565Z" fill-rule="evenodd"/>
<text xml:space="preserve" transform="matrix(1 0 0 1 14.173229 14.173229)" font-size="12" font-family="DFKai"><tspan y="423.742" x="98.376 104.376 110.376 116.376 122.376">12:00</tspan></text>
<path transform="matrix(1,0,0,1,14.173229,14.173229)" d="M93.043 410.145V432.51H94.043V410.145Z" fill-rule="evenodd"/>
<text xml:space="preserve" transform="matrix(1 0 0 1 14.173229 14.173229)" font-size="14" font-family="DFKai"><tspan y="384.451" x="75.203">&#x7b2c;</tspan><tspan y="401.24" x="75.203">&#x56db;</tspan><tspan y="418.029" x="75.203">&#x7bc0;</tspan></text>
<path transform="matrix(1,0,0,1,14.173229,14.173229)" d="M70.366 366.672V432.68H71.366V366.672Z" fill-rule="evenodd"/>
<path transform="matrix(1,0,0,1,14.173229,14.173229)" d="M70.366 366.672H93.543V367.672H70.366Z" fill-rule="evenodd"/>
<text xml:space="preserve" transform="matrix(1 0 0 1 14.173229 14.173229)" font-size="14" font-family="DFKai"><tspan y="445.914" x="69.704 83.704 90.704 97.704">&#x5348;  &#x4f11;</tspan></text>
<path transform="matrix(1,0,0,1,14.173229,14.173229)" d="M46.189 432.237V453.458H50.189V432.237Z" fill-rule="evenodd"/>
<path transform="matrix(1,0,0,1,14.173229,14.173229)" d="M46.189 432.237H133.228V433.237H46.189Z" fill-rule="evenodd"/>
<text xml:space="preserve" transform="matrix(1 0 0 1 14.173229 14.173229)" font-size="14" font-family="DFKai"><tspan y="501.844" x="52.526">&#x4e0b;</tspan><tspan y="669.735" x="52.526">&#x5348;</tspan></text>
<path transform="matrix(1,0,0,1,14.173229,14.173229)" d="M46.189 452.958V717.493H50.189V452.958Z" fill-rule="evenodd"/>
<path transform="matrix(1,0,0,1,14.173229,14.173229)" d="M71.366 452.958V717.493H70.366V452.958Z" fill-rule="evenodd"/>
<path transform="matrix(1,0,0,1,14.173229,14.173229)" d="M46.189 452.958H71.366V453.958H46.189Z" fill-rule="evenodd"/>
<path transform="matrix(1,0,0,1,14.173229,14.173229)" d="M46.189 717.493H71.366V713.493H46.189Z" fill-rule="evenodd"/>
<text xml:space="preserve" transform="matrix(1 0 0 1 14.173229 14.173229)" font-size="14" font-family="DFKai"><tspan y="470.738" x="75.203">&#x7b2c;</tspan><tspan y="487.527" x="75.203">&#x4e94;</tspan><tspan y="504.316" x="75.203">&#x7bc0;</tspan></text>
<path transform="matrix(1,0,0,1,14.173229,14.173229)" d="M70.366 452.958V518.967H71.366V452.958Z" fill-rule="evenodd"/>
<path transform="matrix(1,0,0,1,14.173229,14.173229)" d="M70.366 452.958H93.543V453.958H70.366Z" fill-rule="evenodd"/>
<text xml:space="preserve" transform="matrix(1 0 0 1 14.173229 14.173229)" font-size="12" font-family="DFKai"><tspan y="467.055" x="98.376 104.376 110.376 116.376 122.376">13:10</tspan></text>
<path transform="matrix(1,0,0,1,14.173229,14.173229)" d="M93.043 452.958V475.824H94.043V452.958Z" fill-rule="evenodd"/>
<path transform="matrix(1,0,0,1,14.173229,14.173229)" d="M93.043 452.958H133.228V453.958H93.043Z" fill-rule="evenodd"/>
<text xml:space="preserve" transform="matrix(1 0 0 1 14.173229 14.173229)" font-size="12" font-family="DFKai"><tspan y="488.528" x="110.381">|</tspan></text>
<path transform="matrix(1,0,0,1,14.173229,14.173229)" d="M93.043 475.824V496.403H94.043V475.824Z" fill-rule="evenodd"/>
<text xml:space="preserve" transform="matrix(1 0 0 1 14.173229 14.173229)" font-size="12" font-family="DFKai"><tspan y="510.198" x="98.376 104.376 110.376 116.376 122.376">14:00</tspan></text>
<path transform="matrix(1,0,0,1,14.173229,14.173229)" d="M93.043 496.602V518.967H94.043V496.602Z" fill-rule="evenodd"/>
<text xml:space="preserve" transform="matrix(1 0 0 1 14.173229 14.173229)" font-size="12" font-family="DFKai"><tspan y="532.564" x="98.376 104.376 110.376 116.376 122.376">14:10</tspan></text>
<path transform="matrix(1,0,0,1,14.173229,14.173229)" d="M93.043 518.467V541.332H94.043V518.467Z" fill-rule="evenodd"/>
<path transform="matrix(1,0,0,1,14.173229,14.173229)" d="M93.043 518.467H133.228V519.467H93.043Z" fill-rule="evenodd"/>
<text xml:space="preserve" transform="matrix(1 0 0 1 14.173229 14.173229)" font-size="12" font-family="DFKai"><tspan y="554.036" x="110.381">|</tspan></text>
<path transform="matrix(1,0,0,1,14.173229,14.173229)" d="M93.043 541.332V561.912H94.043V541.332Z" fill-rule="evenodd"/>
<text xml:space="preserve" transform="matrix(1 0 0 1 14.173229 14.173229)" font-size="12" font-family="DFKai"><tspan y="575.735" x="98.376 104.376 110.376 116.376 122.376">15:00</tspan></text>
<path transform="matrix(1,0,0,1,14.173229,14.173229)" d="M93.043 562.139V584.504H94.043V562.139Z" fill-rule="evenodd"/>
<text xml:space="preserve" transform="matrix(1 0 0 1 14.173229 14.173229)" font-size="12" font-family="DFKai"><tspan y="598.101" x="98.376 104.376 110.376 116.376 122.376">15:10</tspan></text>
<path transform="matrix(1,0,0,1,14.173229,14.173229)" d="M93.043 584.004V606.869H94.043V584.004Z" fill-rule="evenodd"/>
<path transform="matrix(1,0,0,1,14.173229,14.173229)" d="M93.043 584.004H133.228V585.004H93.043Z" fill-rule="evenodd"/>
<text xml:space="preserve" transform="matrix(1 0 0 1 14.173229 14.173229)" font-size="12" font-family="DFKai"><tspan y="619.573" x="110.381">|</tspan></text>
<path transform="matrix(1,0,0,1,14.173229,14.173229)" d="M93.043 606.869V627.449H94.043V606.869Z" fill-rule="evenodd"/>
<text xml:space="preserve" transform="matrix(1 0 0 1 14.173229 14.173229)" font-size="12" font-family="DFKai"><tspan y="641.244" x="98.376 104.376 110.376 116.376 122.376">16:00</tspan></text>
<path transform="matrix(1,0,0,1,14.173229,14.173229)" d="M93.043 627.647V650.013H94.043V627.647Z" fill-rule="evenodd"/>
<text xml:space="preserve" transform="matrix(1 0 0 1 14.173229 14.173229)" font-size="12" font-family="DFKai"><tspan y="663.609" x="98.376 104.376 110.376 116.376 122.376">16:05</tspan></text>
<path transform="matrix(1,0,0,1,14.173229,14.173229)" d="M93.043 649.513V672.378H94.043V649.513Z" fill-rule="evenodd"/>
<path transform="matrix(1,0,0,1,14.173229,14.173229)" d="M93.043 649.513H133.228V650.513H93.043Z" fill-rule="evenodd"/>
<text xml:space="preserve" transform="matrix(1 0 0 1 14.173229 14.173229)" font-size="12" font-family="DFKai"><tspan y="685.082" x="110.381">|</tspan></text>
<path transform="matrix(1,0,0,1,14.173229,14.173229)" d="M93.043 672.378V692.958H94.043V672.378Z" fill-rule="evenodd"/>
<text xml:space="preserve" transform="matrix(1 0 0 1 14.173229 14.173229)" font-size="12" font-family="DFKai"><tspan y="706.639" x="98.376 104.376 110.376 116.376 122.376">16:55</tspan></text>
<path transform="matrix(1,0,0,1,14.173229,14.173229)" d="M93.043 692.958V717.493H94.043V692.958Z" fill-rule="evenodd"/>
<path transform="matrix(1,0,0,1,14.173229,14.173229)" d="M133.728 692.958V717.493H132.728V692.958Z" fill-rule="evenodd"/>
<path transform="matrix(1,0,0,1,14.173229,14.173229)" d="M93.043 717.493H133.728V713.493H93.043Z" fill-rule="evenodd"/>
<text xml:space="preserve" transform="matrix(1 0 0 1 14.173229 14.173229)" font-size="14" font-family="DFKai"><tspan y="536.246" x="75.203">&#x7b2c;</tspan><tspan y="553.035" x="75.203">&#x516d;</tspan><tspan y="569.824" x="75.203">&#x7bc0;</tspan></text>
<path transform="matrix(1,0,0,1,14.173229,14.173229)" d="M70.366 518.467V584.476H71.366V518.467Z" fill-rule="evenodd"/>
<path transform="matrix(1,0,0,1,14.173229,14.173229)" d="M70.366 518.467H93.543V519.467H70.366Z" fill-rule="evenodd"/>
<text xml:space="preserve" transform="matrix(1 0 0 1 14.173229 14.173229)" font-size="14" font-family="DFKai"><tspan y="601.755" x="75.203">&#x7b2c;</tspan><tspan y="618.544" x="75.203">&#x4e03;</tspan><tspan y="635.333" x="75.203">&#x7bc0;</tspan></text>
<path transform="matrix(1,0,0,1,14.173229,14.173229)" d="M70.366 583.976V649.984H71.366V583.976Z" fill-rule="evenodd"/>
<path transform="matrix(1,0,0,1,14.173229,14.173229)" d="M70.366 583.976H93.543V584.976H70.366Z" fill-rule="evenodd"/>
<text xml:space="preserve" transform="matrix(1 0 0 1 14.173229 14.173229)" font-size="14" font-family="DFKai"><tspan y="667.264" x="75.203">&#x7b2c;</tspan><tspan y="684.053" x="75.203">&#x516b;</tspan><tspan y="700.842" x="75.203">&#x7bc0;</tspan></text>
<path transform="matrix(1,0,0,1,14.173229,14.173229)" d="M70.366 649.484V717.493H71.366V649.484Z" fill-rule="evenodd"/>
<path transform="matrix(1,0,0,1,14.173229,14.173229)" d="M94.043 649.484V717.493H93.043V649.484Z" fill-rule="evenodd"/>
<path transform="matrix(1,0,0,1,14.173229,14.173229)" d="M70.366 649.484H94.043V650.484H70.366Z" fill-rule="evenodd"/>
<path transform="matrix(1,0,0,1,14.173229,14.173229)" d="M70.366 717.493H94.043V713.493H70.366Z" fill-rule="evenodd"/>
<text xml:space="preserve" transform="matrix(1 0 0 1 14.173229 14.173229)" font-size="12" font-family="MicrosoftJhengHei,Bold" font-weight="bold"><tspan y="202.915" x="211.833 223.833 235.833 247.833 259.833 271.833">&#x5168;&#x6c11;&#x570b;&#x9632;&#x6559;&#x80b2;</tspan></text>
<text xml:space="preserve" transform="matrix(1 0 0 1 14.173229 14.173229)" font-size="9" font-family="EUDC2"><tspan y="213.17299" x="234.34 243.34 252.34">&#x6797;&#x5cb3;&#x6176;</tspan></text>
<path transform="matrix(1,0,0,1,14.173229,14.173229)" d="M209.264 170.146V236.154H210.264V170.146Z" fill-rule="evenodd"/>
<path transform="matrix(1,0,0,1,14.173229,14.173229)" d="M209.264 170.146H286.299V171.146H209.264Z" fill-rule="evenodd"/>
<path transform="matrix(1,0,0,1,14.173229,14.173229)" d="M209.264 126.946V169.937H210.264V126.946Z" fill-rule="evenodd"/>
<path transform="matrix(1,0,0,1,14.173229,14.173229)" d="M209.264 126.946H286.299V127.946H209.264Z" fill-rule="evenodd"/>
<text xml:space="preserve" transform="matrix(1 0 0 1 14.173229 14.173229)" font-size="12" font-family="MicrosoftJhengHei,Bold" font-weight="bold"><tspan y="268.423" x="235.843 247.843">&#x6b77;&#x53f2;</tspan></text>
<text xml:space="preserve" transform="matrix(1 0 0 1 14.173229 14.173229)" font-size="9" font-family="EUDC2"><tspan y="278.681" x="234.341 243.341 252.341">&#x9673;&#x70af;&#x667a;</tspan></text>
<path transform="matrix(1,0,0,1,14.173229,14.173229)" d="M209.264 235.654V301.663H210.264V235.654Z" fill-rule="evenodd"/>
<path transform="matrix(1,0,0,1,14.173229,14.173229)" d="M209.264 235.654H286.299V236.654H209.264Z" fill-rule="evenodd"/>
<text xml:space="preserve" transform="matrix(1 0 0 1 14.173229 14.173229)" font-size="12" font-family="MicrosoftJhengHei,Bold" font-weight="bold"><tspan y="399.469" x="235.843 247.843">&#x97f3;&#x6a02;</tspan></text>
<text xml:space="preserve" transform="matrix(1 0 0 1 14.173229 14.173229)" font-size="9" font-family="EUDC2"><tspan y="409.727" x="234.341 243.341 252.341">&#x5f35;&#x701a;&#x85dd;</tspan></text>
<path transform="matrix(1,0,0,1,14.173229,14.173229)" d="M209.264 366.7V432.709H210.264V366.7Z" fill-rule="evenodd"/>
<path transform="matrix(1,0,0,1,14.173229,14.173229)" d="M209.264 366.7H286.299V367.7H209.264Z" fill-rule="evenodd"/>
<text xml:space="preserve" transform="matrix(1 0 0 1 14.173229 14.173229)" font-size="12" font-family="MicrosoftJhengHei,Bold" font-weight="bold"><tspan y="333.96" x="235.843 247.843">&#x9ad4;&#x80b2;</tspan></text>
<text xml:space="preserve" transform="matrix(1 0 0 1 14.173229 14.173229)" font-size="9" font-family="EUDC2"><tspan y="344.218" x="234.341 243.341 252.341">&#x674e;&#x82e1;&#x7504;</tspan></text>
<path transform="matrix(1,0,0,1,14.173229,14.173229)" d="M209.264 301.191V367.2H210.264V301.191Z" fill-rule="evenodd"/>
<path transform="matrix(1,0,0,1,14.173229,14.173229)" d="M209.264 301.191H286.299V302.191H209.264Z" fill-rule="evenodd"/>
<text xml:space="preserve" transform="matrix(1 0 0 1 14.173229 14.173229)" font-size="12" font-family="DFKai"><tspan y="445.512" x="248.032"> </tspan></text>
<path transform="matrix(1,0,0,1,14.173229,14.173229)" d="M209.264 432.237V453.458H210.264V432.237Z" fill-rule="evenodd"/>
<path transform="matrix(1,0,0,1,14.173229,14.173229)" d="M209.264 432.237H286.299V433.237H209.264Z" fill-rule="evenodd"/>
<text xml:space="preserve" transform="matrix(1 0 0 1 14.173229 14.173229)" font-size="12" font-family="MicrosoftJhengHei,Bold" font-weight="bold"><tspan y="551.236" x="235.843 247.843">&#x6578;&#x5b78;</tspan></text>
<text xml:space="preserve" transform="matrix(1 0 0 1 14.173229 14.173229)" font-size="9" font-family="EUDC2"><tspan y="561.494" x="234.341 243.341 252.341">&#x9673;&#x67cf;&#x87a2;</tspan></text>
<path transform="matrix(1,0,0,1,14.173229,14.173229)" d="M209.264 518.467V584.476H210.264V518.467Z" fill-rule="evenodd"/>
<path transform="matrix(1,0,0,1,14.173229,14.173229)" d="M209.264 518.467H286.299V519.467H209.264Z" fill-rule="evenodd"/>
<text xml:space="preserve" transform="matrix(1 0 0 1 14.173229 14.173229)" font-size="12" font-family="MicrosoftJhengHei,Bold" font-weight="bold"><tspan y="485.727" x="223.824 235.824 247.824 259.824">&#x57fa;&#x672c;&#x96fb;&#x5b78;</tspan></text>
<text xml:space="preserve" transform="matrix(1 0 0 1 14.173229 14.173229)" font-size="9" font-family="EUDC2"><tspan y="495.985" x="234.341 243.341 252.341">&#x674e;&#x6587;&#x5349;</tspan></text>
<path transform="matrix(1,0,0,1,14.173229,14.173229)" d="M209.264 452.958V518.967H210.264V452.958Z" fill-rule="evenodd"/>
<path transform="matrix(1,0,0,1,14.173229,14.173229)" d="M209.264 452.958H286.299V453.958H209.264Z" fill-rule="evenodd"/>
<text xml:space="preserve" transform="matrix(1 0 0 1 14.173229 14.173229)" font-size="12" font-family="MicrosoftJhengHei,Bold" font-weight="bold"><tspan y="616.773" x="235.843 247.843">&#x6578;&#x5b78;</tspan></text>
<text xml:space="preserve" transform="matrix(1 0 0 1 14.173229 14.173229)" font-size="9" font-family="EUDC2"><tspan y="627.031" x="234.341 243.341 252.341">&#x9673;&#x67cf;&#x87a2;</tspan></text>
<path transform="matrix(1,0,0,1,14.173229,14.173229)" d="M209.264 584.004V650.013H210.264V584.004Z" fill-rule="evenodd"/>
<path transform="matrix(1,0,0,1,14.173229,14.173229)" d="M209.264 584.004H286.299V585.004H209.264Z" fill-rule="evenodd"/>
<path transform="matrix(1,0,0,1,14.173229,14.173229)" d="M209.264 649.513V717.521H210.264V649.513Z" fill-rule="evenodd"/>
<path transform="matrix(1,0,0,1,14.173229,14.173229)" d="M286.799 649.513V717.521H285.799V649.513Z" fill-rule="evenodd"/>
<path transform="matrix(1,0,0,1,14.173229,14.173229)" d="M209.264 649.513H286.799V650.513H209.264Z" fill-rule="evenodd"/>
<path transform="matrix(1,0,0,1,14.173229,14.173229)" d="M209.264 717.521H286.799V713.521H209.264Z" fill-rule="evenodd"/>
<text xml:space="preserve" transform="matrix(1 0 0 1 14.173229 14.173229)" font-size="12" font-family="MicrosoftJhengHei,Bold" font-weight="bold"><tspan y="202.915" x="306.369 318.369 330.369">&#x570b;&#x8a9e;&#x6587;</tspan></text>
<text xml:space="preserve" transform="matrix(1 0 0 1 14.173229 14.173229)" font-size="9" font-family="EUDC2"><tspan y="213.17299" x="310.87599 319.87599 328.87599">&#x767d;&#x54f2;&#x7dad;</tspan></text>
<path transform="matrix(1,0,0,1,14.173229,14.173229)" d="M285.799 170.146V236.154H286.799V170.146Z" fill-rule="evenodd"/>
<path transform="matrix(1,0,0,1,14.173229,14.173229)" d="M285.799 170.146H362.835V171.146H285.799Z" fill-rule="evenodd"/>
<path transform="matrix(1,0,0,1,14.173229,14.173229)" d="M285.799 126.946V169.937H286.799V126.946Z" fill-rule="evenodd"/>
<path transform="matrix(1,0,0,1,14.173229,14.173229)" d="M285.799 126.946H362.835V127.946H285.799Z" fill-rule="evenodd"/>
<text xml:space="preserve" transform="matrix(1 0 0 1 14.173229 14.173229)" font-size="12" font-family="MicrosoftJhengHei,Bold" font-weight="bold"><tspan y="263.037" x="300.359 312.359 324.359 336.359">&#x8cc7;&#x8a0a;&#x79d1;&#x6280;</tspan></text>
<text xml:space="preserve" transform="matrix(1 0 0 1 14.173229 14.173229)" font-size="9" font-family="EUDC2"><tspan y="273.29499" x="310.876 319.876 328.876">&#x6797;&#x91d1;&#x9f8d;</tspan><tspan y="284.09498" x="306.36903 315.36903 324.36903 333.36903">&#x96fb;&#x8166;&#x6559;&#x5ba4;</tspan></text>
<path transform="matrix(1,0,0,1,14.173229,14.173229)" d="M285.799 235.654V301.663H286.799V235.654Z" fill-rule="evenodd"/>
<path transform="matrix(1,0,0,1,14.173229,14.173229)" d="M285.799 235.654H362.835V236.654H285.799Z" fill-rule="evenodd"/>
<text xml:space="preserve" transform="matrix(1 0 0 1 14.173229 14.173229)" font-size="12" font-family="MicrosoftJhengHei,Bold" font-weight="bold"><tspan y="399.469" x="306.369 318.369 330.369">&#x82f1;&#x8a9e;&#x6587;</tspan></text>
<text xml:space="preserve" transform="matrix(1 0 0 1 14.173229 14.173229)" font-size="9" font-family="EUDC2"><tspan y="409.727" x="310.87599 319.87599 328.87599">&#x9673;&#x7f8e;&#x7489;</tspan></text>
<path transform="matrix(1,0,0,1,14.173229,14.173229)" d="M285.799 366.7V432.709H286.799V366.7Z" fill-rule="evenodd"/>
<path transform="matrix(1,0,0,1,14.173229,14.173229)" d="M285.799 366.7H362.835V367.7H285.799Z" fill-rule="evenodd"/>
<text xml:space="preserve" transform="matrix(1 0 0 1 14.173229 14.173229)" font-size="12" font-family="MicrosoftJhengHei,Bold" font-weight="bold"><tspan y="328.574" x="300.359 312.359 324.359 336.359">&#x8cc7;&#x8a0a;&#x79d1;&#x6280;</tspan></text>
<text xml:space="preserve" transform="matrix(1 0 0 1 14.173229 14.173229)" font-size="9" font-family="EUDC2"><tspan y="338.832" x="310.876 319.876 328.876">&#x6797;&#x91d1;&#x9f8d;</tspan><tspan y="349.632" x="306.36903 315.36903 324.36903 333.36903">&#x96fb;&#x8166;&#x6559;&#x5ba4;</tspan></text>
<path transform="matrix(1,0,0,1,14.173229,14.173229)" d="M285.799 301.191V367.2H286.799V301.191Z" fill-rule="evenodd"/>
<path transform="matrix(1,0,0,1,14.173229,14.173229)" d="M285.799 301.191H362.835V302.191H285.799Z" fill-rule="evenodd"/>
<text xml:space="preserve" transform="matrix(1 0 0 1 14.173229 14.173229)" font-size="12" font-family="DFKai"><tspan y="445.512" x="324.567"> </tspan></text>
<path transform="matrix(1,0,0,1,14.173229,14.173229)" d="M285.799 432.237V453.458H286.799V432.237Z" fill-rule="evenodd"/>
<path transform="matrix(1,0,0,1,14.173229,14.173229)" d="M285.799 432.237H362.835V433.237H285.799Z" fill-rule="evenodd"/>
<text xml:space="preserve" transform="matrix(1 0 0 1 14.173229 14.173229)" font-size="12" font-family="MicrosoftJhengHei,Bold" font-weight="bold"><tspan y="556.65" x="288.369 300.369 312.369 324.369 336.369 348.369">&#x5718;&#x9ad4;&#x6d3b;&#x52d5;&#x6642;&#x9593;</tspan></text>
<path transform="matrix(1,0,0,1,14.173229,14.173229)" d="M285.799 518.467V584.476H286.799V518.467Z" fill-rule="evenodd"/>
<path transform="matrix(1,0,0,1,14.173229,14.173229)" d="M285.799 518.467H362.835V519.467H285.799Z" fill-rule="evenodd"/>
<text xml:space="preserve" transform="matrix(1 0 0 1 14.173229 14.173229)" font-size="12" font-family="MicrosoftJhengHei,Bold" font-weight="bold"><tspan y="485.727" x="312.378 324.378">&#x73ed;&#x6703;</tspan></text>
<text xml:space="preserve" transform="matrix(1 0 0 1 14.173229 14.173229)" font-size="9" font-family="EUDC2"><tspan y="495.985" x="310.87599 319.87599 328.87599">&#x9673;&#x7f8e;&#x7489;</tspan></text>
<path transform="matrix(1,0,0,1,14.173229,14.173229)" d="M285.799 452.958V518.967H286.799V452.958Z" fill-rule="evenodd"/>
<path transform="matrix(1,0,0,1,14.173229,14.173229)" d="M285.799 452.958H362.835V453.958H285.799Z" fill-rule="evenodd"/>
<text xml:space="preserve" transform="matrix(1 0 0 1 14.173229 14.173229)" font-size="12" font-family="MicrosoftJhengHei,Bold" font-weight="bold"><tspan y="622.187" x="288.369 300.369 312.369 324.369 336.369 348.369">&#x5718;&#x9ad4;&#x6d3b;&#x52d5;&#x6642;&#x9593;</tspan></text>
<path transform="matrix(1,0,0,1,14.173229,14.173229)" d="M285.799 584.004V650.013H286.799V584.004Z" fill-rule="evenodd"/>
<path transform="matrix(1,0,0,1,14.173229,14.173229)" d="M285.799 584.004H362.835V585.004H285.799Z" fill-rule="evenodd"/>
<path transform="matrix(1,0,0,1,14.173229,14.173229)" d="M285.799 649.513V717.521H286.799V649.513Z" fill-rule="evenodd"/>
<path transform="matrix(1,0,0,1,14.173229,14.173229)" d="M363.335 649.513V717.521H362.335V649.513Z" fill-rule="evenodd"/>
<path transform="matrix(1,0,0,1,14.173229,14.173229)" d="M285.799 649.513H363.335V650.513H285.799Z" fill-rule="evenodd"/>
<path transform="matrix(1,0,0,1,14.173229,14.173229)" d="M285.799 717.521H363.335V713.521H285.799Z" fill-rule="evenodd"/>
<text xml:space="preserve" transform="matrix(1 0 0 1 14.173229 14.173229)" font-size="12" font-family="MicrosoftJhengHei,Bold" font-weight="bold"><tspan y="202.915" x="376.923 388.923 400.923 412.923">&#x57fa;&#x790e;&#x82f1;&#x6587;</tspan></text>
<text xml:space="preserve" transform="matrix(1 0 0 1 14.173229 14.173229)" font-size="9" font-family="EUDC2"><tspan y="213.17299" x="387.44 396.44 405.44">&#x9673;&#x7f8e;&#x7489;</tspan></text>
<path transform="matrix(1,0,0,1,14.173229,14.173229)" d="M362.363 170.146V236.154H363.363V170.146Z" fill-rule="evenodd"/>
<path transform="matrix(1,0,0,1,14.173229,14.173229)" d="M362.363 170.146H439.398V171.146H362.363Z" fill-rule="evenodd"/>
<path transform="matrix(1,0,0,1,14.173229,14.173229)" d="M362.363 126.946V169.937H363.363V126.946Z" fill-rule="evenodd"/>
<path transform="matrix(1,0,0,1,14.173229,14.173229)" d="M362.363 126.946H439.398V127.946H362.363Z" fill-rule="evenodd"/>
<text xml:space="preserve" transform="matrix(1 0 0 1 14.173229 14.173229)" font-size="12" font-family="MicrosoftJhengHei,Bold" font-weight="bold"><tspan y="263.037" x="370.942 382.942 394.942 406.942 418.942">&#x5065;&#x5eb7;&#x8207;&#x8b77;&#x7406;</tspan></text>
<text xml:space="preserve" transform="matrix(1 0 0 1 14.173229 14.173229)" font-size="9" font-family="EUDC2"><tspan y="273.29499" x="387.43998 396.43998 405.43998">&#x838a;&#x9e97;&#x73cd;</tspan><tspan y="284.09498" x="382.93299 391.93299 400.93299 409.93299">&#x5065;&#x8b77;&#x6559;&#x5ba4;</tspan></text>
<path transform="matrix(1,0,0,1,14.173229,14.173229)" d="M362.363 235.654V301.663H363.363V235.654Z" fill-rule="evenodd"/>
<path transform="matrix(1,0,0,1,14.173229,14.173229)" d="M362.363 235.654H439.398V236.654H362.363Z" fill-rule="evenodd"/>
<text xml:space="preserve" transform="matrix(1 0 0 1 14.173229 14.173229)" font-size="12" font-family="MicrosoftJhengHei,Bold" font-weight="bold"><tspan y="399.469" x="388.942 400.942">&#x7269;&#x7406;</tspan></text>
<text xml:space="preserve" transform="matrix(1 0 0 1 14.173229 14.173229)" font-size="9" font-family="EUDC2"><tspan y="409.727" x="387.43998 396.43998 405.43998">&#x7c98;&#x91d1;&#x7199;</tspan></text>
<path transform="matrix(1,0,0,1,14.173229,14.173229)" d="M362.363 366.7V432.709H363.363V366.7Z" fill-rule="evenodd"/>
<path transform="matrix(1,0,0,1,14.173229,14.173229)" d="M362.363 366.7H439.398V367.7H362.363Z" fill-rule="evenodd"/>
<text xml:space="preserve" transform="matrix(1 0 0 1 14.173229 14.173229)" font-size="12" font-family="MicrosoftJhengHei,Bold" font-weight="bold"><tspan y="333.96" x="388.942 400.942">&#x7269;&#x7406;</tspan></text>
<text xml:space="preserve" transform="matrix(1 0 0 1 14.173229 14.173229)" font-size="9" font-family="EUDC2"><tspan y="344.218" x="387.43998 396.43998 405.43998">&#x7c98;&#x91d1;&#x7199;</tspan></text>
<path transform="matrix(1,0,0,1,14.173229,14.173229)" d="M362.363 301.191V367.2H363.363V301.191Z" fill-rule="evenodd"/>
<path transform="matrix(1,0,0,1,14.173229,14.173229)" d="M362.363 301.191H439.398V302.191H362.363Z" fill-rule="evenodd"/>
<text xml:space="preserve" transform="matrix(1 0 0 1 14.173229 14.173229)" font-size="12" font-family="DFKai"><tspan y="445.512" x="401.131"> </tspan></text>
<path transform="matrix(1,0,0,1,14.173229,14.173229)" d="M362.363 432.237V453.458H363.363V432.237Z" fill-rule="evenodd"/>
<path transform="matrix(1,0,0,1,14.173229,14.173229)" d="M362.363 432.237H439.398V433.237H362.363Z" fill-rule="evenodd"/>
<text xml:space="preserve" transform="matrix(1 0 0 1 14.173229 14.173229)" font-size="12" font-family="MicrosoftJhengHei,Bold" font-weight="bold"><tspan y="551.236" x="388.942 400.942">&#x6578;&#x5b78;</tspan></text>
<text xml:space="preserve" transform="matrix(1 0 0 1 14.173229 14.173229)" font-size="9" font-family="EUDC2"><tspan y="561.494" x="387.43998 396.43998 405.43998">&#x9673;&#x67cf;&#x87a2;</tspan></text>
<path transform="matrix(1,0,0,1,14.173229,14.173229)" d="M362.363 518.467V584.476H363.363V518.467Z" fill-rule="evenodd"/>
<path transform="matrix(1,0,0,1,14.173229,14.173229)" d="M362.363 518.467H439.398V519.467H362.363Z" fill-rule="evenodd"/>
<text xml:space="preserve" transform="matrix(1 0 0 1 14.173229 14.173229)" font-size="12" font-family="MicrosoftJhengHei,Bold" font-weight="bold"><tspan y="485.727" x="388.942 400.942">&#x9ad4;&#x80b2;</tspan></text>
<text xml:space="preserve" transform="matrix(1 0 0 1 14.173229 14.173229)" font-size="9" font-family="EUDC2"><tspan y="495.985" x="387.43998 396.43998 405.43998">&#x674e;&#x82e1;&#x7504;</tspan></text>
<path transform="matrix(1,0,0,1,14.173229,14.173229)" d="M362.363 452.958V518.967H363.363V452.958Z" fill-rule="evenodd"/>
<path transform="matrix(1,0,0,1,14.173229,14.173229)" d="M362.363 452.958H439.398V453.958H362.363Z" fill-rule="evenodd"/>
<text xml:space="preserve" transform="matrix(1 0 0 1 14.173229 14.173229)" font-size="12" font-family="MicrosoftJhengHei,Bold" font-weight="bold"><tspan y="611.359" x="376.923 388.923 400.923 412.923">&#x751f;&#x6daf;&#x8f14;&#x5c0e;</tspan></text>
<text xml:space="preserve" transform="matrix(1 0 0 1 14.173229 14.173229)" font-size="9" font-family="EUDC2"><tspan y="621.617" x="387.44 396.44 405.44">&#x9673;&#x60e0;&#x5982;</tspan><tspan y="632.417" x="382.933 391.933 400.933 409.933">&#x96fb;&#x8166;&#x6559;&#x5ba4;</tspan></text>
<path transform="matrix(1,0,0,1,14.173229,14.173229)" d="M362.363 583.976V649.984H363.363V583.976Z" fill-rule="evenodd"/>
<path transform="matrix(1,0,0,1,14.173229,14.173229)" d="M362.363 583.976H439.398V584.976H362.363Z" fill-rule="evenodd"/>
<path transform="matrix(1,0,0,1,14.173229,14.173229)" d="M362.363 649.484V717.493H363.363V649.484Z" fill-rule="evenodd"/>
<path transform="matrix(1,0,0,1,14.173229,14.173229)" d="M439.898 649.484V717.493H438.898V649.484Z" fill-rule="evenodd"/>
<path transform="matrix(1,0,0,1,14.173229,14.173229)" d="M362.363 649.484H439.898V650.484H362.363Z" fill-rule="evenodd"/>
<path transform="matrix(1,0,0,1,14.173229,14.173229)" d="M362.363 717.493H439.898V713.493H362.363Z" fill-rule="evenodd"/>
<text xml:space="preserve" transform="matrix(1 0 0 1 14.173229 14.173229)" font-size="12" font-family="MicrosoftJhengHei,Bold" font-weight="bold"><tspan y="202.915" x="459.468 471.468 483.468">&#x570b;&#x8a9e;&#x6587;</tspan></text>
<text xml:space="preserve" transform="matrix(1 0 0 1 14.173229 14.173229)" font-size="9" font-family="EUDC2"><tspan y="213.17299" x="463.97499 472.97499 481.97499">&#x767d;&#x54f2;&#x7dad;</tspan></text>
<path transform="matrix(1,0,0,1,14.173229,14.173229)" d="M438.898 170.146V236.154H439.898V170.146Z" fill-rule="evenodd"/>
<path transform="matrix(1,0,0,1,14.173229,14.173229)" d="M517.934 170.146V236.154H513.934V170.146Z" fill-rule="evenodd"/>
<path transform="matrix(1,0,0,1,14.173229,14.173229)" d="M438.898 170.146H517.934V171.146H438.898Z" fill-rule="evenodd"/>
<path transform="matrix(1,0,0,1,14.173229,14.173229)" d="M438.898 126.946V169.937H439.898V126.946Z" fill-rule="evenodd"/>
<path transform="matrix(1,0,0,1,14.173229,14.173229)" d="M517.934 126.946V169.937H513.934V126.946Z" fill-rule="evenodd"/>
<path transform="matrix(1,0,0,1,14.173229,14.173229)" d="M438.898 126.946H517.934V127.946H438.898Z" fill-rule="evenodd"/>
<text xml:space="preserve" transform="matrix(1 0 0 1 14.173229 14.173229)" font-size="12" font-family="MicrosoftJhengHei,Bold" font-weight="bold"><tspan y="268.423" x="459.468 471.468 483.468">&#x570b;&#x8a9e;&#x6587;</tspan></text>
<text xml:space="preserve" transform="matrix(1 0 0 1 14.173229 14.173229)" font-size="9" font-family="EUDC2"><tspan y="278.681" x="463.97499 472.97499 481.97499">&#x767d;&#x54f2;&#x7dad;</tspan></text>
<path transform="matrix(1,0,0,1,14.173229,14.173229)" d="M438.898 235.654V301.663H439.898V235.654Z" fill-rule="evenodd"/>
<path transform="matrix(1,0,0,1,14.173229,14.173229)" d="M517.934 235.654V301.663H513.934V235.654Z" fill-rule="evenodd"/>
<path transform="matrix(1,0,0,1,14.173229,14.173229)" d="M438.898 235.654H517.934V236.654H438.898Z" fill-rule="evenodd"/>
<text xml:space="preserve" transform="matrix(1 0 0 1 14.173229 14.173229)" font-size="12" font-family="MicrosoftJhengHei,Bold" font-weight="bold"><tspan y="399.469" x="459.468 471.468 483.468">&#x82f1;&#x8a9e;&#x6587;</tspan></text>
<text xml:space="preserve" transform="matrix(1 0 0 1 14.173229 14.173229)" font-size="9" font-family="EUDC2"><tspan y="409.727" x="463.97499 472.97499 481.97499">&#x9673;&#x7f8e;&#x7489;</tspan></text>
<path transform="matrix(1,0,0,1,14.173229,14.173229)" d="M438.898 366.7V432.709H439.898V366.7Z" fill-rule="evenodd"/>
<path transform="matrix(1,0,0,1,14.173229,14.173229)" d="M517.934 366.7V432.709H513.934V366.7Z" fill-rule="evenodd"/>
<path transform="matrix(1,0,0,1,14.173229,14.173229)" d="M438.898 366.7H517.934V367.7H438.898Z" fill-rule="evenodd"/>
<text xml:space="preserve" transform="matrix(1 0 0 1 14.173229 14.173229)" font-size="12" font-family="MicrosoftJhengHei,Bold" font-weight="bold"><tspan y="333.96" x="465.477 477.477">&#x6578;&#x5b78;</tspan></text>
<text xml:space="preserve" transform="matrix(1 0 0 1 14.173229 14.173229)" font-size="9" font-family="EUDC2"><tspan y="344.218" x="463.97499 472.97499 481.97499">&#x9673;&#x67cf;&#x87a2;</tspan></text>
<path transform="matrix(1,0,0,1,14.173229,14.173229)" d="M438.898 301.191V367.2H439.898V301.191Z" fill-rule="evenodd"/>
<path transform="matrix(1,0,0,1,14.173229,14.173229)" d="M517.934 301.191V367.2H513.934V301.191Z" fill-rule="evenodd"/>
<path transform="matrix(1,0,0,1,14.173229,14.173229)" d="M438.898 301.191H517.934V302.191H438.898Z" fill-rule="evenodd"/>
<text xml:space="preserve" transform="matrix(1 0 0 1 14.173229 14.173229)" font-size="12" font-family="DFKai"><tspan y="445.512" x="477.666"> </tspan></text>
<path transform="matrix(1,0,0,1,14.173229,14.173229)" d="M438.898 432.237V453.458H439.898V432.237Z" fill-rule="evenodd"/>
<path transform="matrix(1,0,0,1,14.173229,14.173229)" d="M517.934 432.237V453.458H513.934V432.237Z" fill-rule="evenodd"/>
<path transform="matrix(1,0,0,1,14.173229,14.173229)" d="M438.898 432.237H517.934V433.237H438.898Z" fill-rule="evenodd"/>
<text xml:space="preserve" transform="matrix(1 0 0 1 14.173229 14.173229)" font-size="12" font-family="MicrosoftJhengHei,Bold" font-weight="bold"><tspan y="551.236" x="453.458 465.458 477.458 489.458">&#x57fa;&#x672c;&#x96fb;&#x5b78;</tspan></text>
<text xml:space="preserve" transform="matrix(1 0 0 1 14.173229 14.173229)" font-size="9" font-family="EUDC2"><tspan y="561.494" x="463.975 472.975 481.975">&#x674e;&#x6587;&#x5349;</tspan></text>
<path transform="matrix(1,0,0,1,14.173229,14.173229)" d="M438.898 518.467V584.476H439.898V518.467Z" fill-rule="evenodd"/>
<path transform="matrix(1,0,0,1,14.173229,14.173229)" d="M517.934 518.467V584.476H513.934V518.467Z" fill-rule="evenodd"/>
<path transform="matrix(1,0,0,1,14.173229,14.173229)" d="M438.898 518.467H517.934V519.467H438.898Z" fill-rule="evenodd"/>
<text xml:space="preserve" transform="matrix(1 0 0 1 14.173229 14.173229)" font-size="12" font-family="MicrosoftJhengHei,Bold" font-weight="bold"><tspan y="485.727" x="453.458 465.458 477.458 489.458">&#x57fa;&#x672c;&#x96fb;&#x5b78;</tspan></text>
<text xml:space="preserve" transform="matrix(1 0 0 1 14.173229 14.173229)" font-size="9" font-family="EUDC2"><tspan y="495.985" x="463.975 472.975 481.975">&#x674e;&#x6587;&#x5349;</tspan></text>
<path transform="matrix(1,0,0,1,14.173229,14.173229)" d="M438.898 452.958V518.967H439.898V452.958Z" fill-rule="evenodd"/>
<path transform="matrix(1,0,0,1,14.173229,14.173229)" d="M517.934 452.958V518.967H513.934V452.958Z" fill-rule="evenodd"/>
<path transform="matrix(1,0,0,1,14.173229,14.173229)" d="M438.898 452.958H517.934V453.958H438.898Z" fill-rule="evenodd"/>
<text xml:space="preserve" transform="matrix(1 0 0 1 14.173229 14.173229)" font-size="12" font-family="MicrosoftJhengHei,Bold" font-weight="bold"><tspan y="616.773" x="465.477 477.477">&#x5730;&#x7406;</tspan></text>
<text xml:space="preserve" transform="matrix(1 0 0 1 14.173229 14.173229)" font-size="9" font-family="EUDC2"><tspan y="627.031" x="463.97499 472.97499 481.97499">&#x6234;&#x84d3;&#x502b;</tspan></text>
<path transform="matrix(1,0,0,1,14.173229,14.173229)" d="M438.898 584.004V650.013H439.898V584.004Z" fill-rule="evenodd"/>
<path transform="matrix(1,0,0,1,14.173229,14.173229)" d="M517.934 584.004V650.013H513.934V584.004Z" fill-rule="evenodd"/>
<path transform="matrix(1,0,0,1,14.173229,14.173229)" d="M438.898 584.004H517.934V585.004H438.898Z" fill-rule="evenodd"/>
<path transform="matrix(1,0,0,1,14.173229,14.173229)" d="M438.898 649.541V717.55H439.898V649.541Z" fill-rule="evenodd"/>
<path transform="matrix(1,0,0,1,14.173229,14.173229)" d="M517.934 649.541V717.55H513.934V649.541Z" fill-rule="evenodd"/>
<path transform="matrix(1,0,0,1,14.173229,14.173229)" d="M438.898 649.541H517.934V650.541H438.898Z" fill-rule="evenodd"/>
<path transform="matrix(1,0,0,1,14.173229,14.173229)" d="M438.898 717.55H517.934V713.55H438.898Z" fill-rule="evenodd"/>
</g>
</svg>
