<svg width="295" height="183" xmlns="http://www.w3.org/2000/svg" xmlns:xlink="http://www.w3.org/1999/xlink" xml:space="preserve" overflow="hidden"><defs><clipPath id="clip0"><rect x="15" y="3" width="295" height="183"/></clipPath></defs><g clip-path="url(#clip0)" transform="translate(-15 -3)"><path d="M212.996 259.026C196.465 241.957 180.058 225.009 163.428 207.832 162.727 209.347 162.938 210.49 162.937 211.581 162.926 242.138 162.933 272.696 162.935 303.253 162.935 306.828 160.041 308.552 156.824 306.923 156.131 306.572 155.945 306.015 155.92 305.342 155.893 304.611 155.898 303.879 155.898 303.147 155.896 263.976 155.898 224.804 155.879 185.633 155.879 184.702 156.181 183.692 155.506 182.813 154.336 182.856 153.862 183.822 153.22 184.485 137.856 200.356 122.512 216.245 107.158 232.124 102.362 237.084 97.5407 242.019 92.7448 246.978 91.9481 247.802 91.1405 248.62 90.0936 249.092 88.7589 249.694 87.3687 249.799 86.2315 248.701 85.129 247.635 84.9871 246.295 85.5123 244.87 85.9741 243.616 86.8386 242.653 87.7456 241.716 103.71 225.209 119.672 208.702 135.634 192.192 139.243 188.459 142.841 184.715 146.444 180.977 146.889 180.516 147.415 180.116 147.648 178.996L144.06 178.996C130.244 179.004 116.429 179.011 102.613 179.024 101.309 179.025 100.016 179.01 98.7559 178.598 97.3681 178.146 96.602 177.196 96.4367 175.767 96.2709 174.327 96.8478 173.259 98.0839 172.497 99.4688 171.643 100.985 171.569 102.547 171.57 119.126 171.581 135.705 171.578 152.284 171.571 155.891 171.57 155.893 171.556 155.894 167.91 155.894 161.977 155.808 156.043 155.933 150.113 155.978 147.977 155.323 147.321 153.168 147.332 136.752 147.412 120.336 147.372 103.919 147.387 102.444 147.388 101.049 147.211 99.6297 146.71 98.1922 146.203 97.4598 145.32 97.3681 143.899 97.2696 142.367 98.0025 141.234 99.3771 140.571 100.57 139.995 101.857 139.862 103.175 139.863 121.379 139.874 139.583 139.859 157.788 139.881 162.384 139.886 163.347 141.408 163.081 145.988 162.752 151.648 163.002 157.342 163.002 163.174 164.325 163.097 164.941 162.21 165.642 161.504 176.224 150.836 186.799 140.161 197.375 129.487 197.546 129.314 197.696 129.117 197.877 128.955 200.043 127.011 201.87 126.714 203.253 128.074 204.794 129.591 204.598 132.239 202.684 134.18 191.175 145.85 179.762 157.619 168.05 169.082 164.456 172.599 162.222 176.02 162.829 181.295 163.327 185.626 162.984 190.061 162.911 194.448 162.881 196.276 163.441 197.656 164.741 198.993 182.73 217.496 200.672 236.046 218.619 254.59 227.761 264.036 236.893 273.491 246.016 282.955 247.134 284.114 248.355 285.216 248.363 287.061 248.375 289.642 246.377 291.12 243.941 290.259 242.747 289.837 241.912 288.947 241.062 288.068 231.709 278.384 222.354 268.704 212.996 259.026" stroke="#000000" stroke-width="0.487633" transform="matrix(1.0025 0 0 1 -70.4314 -121.682)"/><path d="M295.993 133.662C320.694 133.654 345.151 133.646 369.608 133.64 370.822 133.64 372.036 133.569 373.185 134.15 374.774 134.954 375.813 136.134 375.626 137.98 375.426 139.955 373.994 140.886 372.237 141.327 371.543 141.501 370.783 141.438 370.053 141.438 350.471 141.43 330.89 141.416 311.308 141.403 308.345 141.4 308.178 141.554 308.176 144.599 308.163 178.562 308.152 212.526 308.146 246.489 308.146 249.457 308.255 249.556 311.36 249.556 331.998 249.555 352.637 249.551 373.275 249.551 374.087 249.551 374.948 249.411 375.701 249.63 377.505 250.154 379.376 250.767 379.479 253.132 379.564 255.068 377.809 256.79 375.534 257.05 374.812 257.133 374.074 257.09 373.342 257.09 337.185 257.09 301.028 257.088 264.871 257.085 264.302 257.085 263.73 257.111 263.166 257.054 260.593 256.794 258.806 255.194 258.864 253.234 258.917 251.437 260.731 249.855 263.121 249.582 263.844 249.5 264.582 249.548 265.313 249.548 276.282 249.55 287.251 249.485 298.219 249.607 300.684 249.634 301.4 248.9 301.394 246.432 301.318 212.468 301.317 178.505 301.382 144.542 301.387 142.06 300.595 141.356 298.161 141.367 280.286 141.455 262.41 141.416 244.535 141.412 243.399 141.412 242.251 141.448 241.128 141.311 238.517 140.991 236.939 139.546 236.982 137.649 237.023 135.775 238.979 134.036 241.402 133.879 243.669 133.731 245.945 133.675 248.217 133.672 264.061 133.655 279.905 133.662 295.993 133.662" stroke="#000000" stroke-width="0.487633" transform="matrix(1.0025 0 0 1 -70.4314 -121.682)"/><path d="M275.983 268.212C277.739 267.096 278.929 265.453 280.124 263.804 281.492 261.916 282.923 261.676 284.509 263.406 285.483 264.467 286.499 264.647 287.734 264.648 290.577 264.65 293.421 264.675 296.265 264.66 298.351 264.649 298.992 265.733 298.635 267.644 298.269 269.598 296.992 271.003 295.587 272.206 294.47 273.163 292.288 271.949 292.113 270.411 292.052 269.868 292.586 269.343 292.17 268.754 291.618 268.306 290.932 268.589 290.307 268.498 289.846 268.431 289.366 268.485 288.755 268.485 288.86 270.349 289.669 271.477 291.242 272.079 293.136 272.804 295.024 273.545 296.93 274.237 297.827 274.562 299.059 274.593 298.842 275.96 298.628 277.311 297.914 278.642 296.351 278.449 294.298 278.195 294.256 279.307 294.272 280.742 294.306 283.829 294.259 286.916 294.329 290.001 294.359 291.334 294.639 292.681 292.875 293.299 294.269 293.653 295.686 293.936 297.05 294.383 297.934 294.673 299.089 294.98 298.656 296.352 298.274 297.559 297.622 298.777 296.135 298.531 293.023 298.014 289.927 297.368 286.857 296.641 284.731 296.138 286.297 294.51 286.146 293.33 283.925 292.747 281.738 293.157 279.353 292.962 279.593 294.811 278.422 295.392 276.982 295.934 274.163 296.995 271.283 297.812 268.35 298.45 266.977 298.75 265.771 298.546 265.08 297.076 264.466 295.771 264.668 294.877 266.173 294.513 267.665 294.152 269.159 293.801 271.203 293.315 269.269 292.803 269.123 291.667 269.134 290.402 269.164 286.909 269.222 283.413 269.134 279.922 269.078 277.656 269.881 276.584 272.272 276.813 273.279 276.909 274.379 277.078 275.367 276.474 275.712 274.982 274.892 274.57 273.642 274.567 271.448 274.561 269.254 274.567 267.06 274.568 265.523 274.569 264.615 273.962 264.594 272.268 264.573 270.517 265.516 270.032 267.061 270.057 269.336 270.094 271.611 270.046 273.886 270.072 274.981 270.084 275.831 269.849 275.967 268.379 275.998 268.198 275.983 268.212 275.983 268.212M284.031 268.491C282.633 268.139 281.771 268.909 280.925 269.869 279.857 271.079 278.794 272.459 276.871 271.147 276.642 272.227 276.473 273.003 277.22 273.923 280.038 272.826 283.066 272.046 284.031 268.491M274.849 289.316C279.538 289.738 284.215 289.417 288.9 289.135 285.149 288.743 281.394 288.692 277.644 288.776 276.642 288.799 275.507 288.251 274.849 289.316M284.491 285.214 288.803 285.214 288.76 284.65 274.901 284.65 274.898 285.215C277.937 285.215 280.977 285.215 284.491 285.214M284.6 275.07C283.993 275.5 283.184 275.743 282.905 276.754 285.373 276.888 287.635 277.027 289.903 276.466 288.243 275.815 287.191 273.333 284.6 275.07M278.265 280.406 274.572 280.406 274.595 280.891 288.641 280.891 288.636 280.405C285.335 280.405 282.033 280.405 278.265 280.406" stroke="#000000" stroke-width="0.487633" transform="matrix(1.0025 0 0 1 -70.4314 -121.682)"/><path d="M320.26 285.352C320.344 283.442 320.457 281.864 318.028 281.668 316.842 281.573 316.785 280.353 316.803 279.339 316.82 278.342 317.161 277.486 318.256 277.435 320.071 277.351 320.311 276.248 320.265 274.792 320.219 273.334 320.226 271.871 320.267 270.412 320.31 268.888 320.387 267.501 318.261 267.234 317.183 267.099 317.186 265.952 317.224 265.042 317.264 264.086 317.841 263.461 318.746 263.448 323.042 263.388 327.342 263.323 331.635 263.439 333.174 263.481 333.099 264.917 333.101 266.064 333.108 271.825 333.059 277.586 333.132 283.346 333.16 285.502 333.463 287.655 333.643 289.849 334.288 289.673 334.284 289.317 334.341 289.009 334.505 288.109 334.224 286.818 335.727 286.935 337.131 287.044 338.362 287.793 338.385 289.301 338.431 292.264 337.692 295.092 336.036 297.594 335.304 298.701 334.074 298.756 332.955 298.44 331.492 298.027 330.916 296.812 330.467 295.41 329.186 291.417 328.835 287.336 328.98 283.181 328.993 282.79 328.894 282.397 328.851 282.035 325.111 281.551 324.815 281.799 324.816 285.326 324.817 288.815 324.807 292.304 324.831 295.793 324.841 297.358 324.485 298.543 322.578 298.516 320.752 298.49 320.246 297.418 320.258 295.805 320.284 292.398 320.262 288.99 320.26 285.352M326.479 267.415C325.194 267.351 324.795 268.089 324.806 269.231 324.822 270.763 324.81 272.293 324.817 273.824 324.833 277.519 324.852 277.535 328.952 277.253 328.952 274.491 328.99 271.699 328.935 268.908 328.91 267.615 327.912 267.429 326.479 267.415" stroke="#000000" stroke-width="0.487633" transform="matrix(1.0025 0 0 1 -70.4314 -121.682)"/><path d="M173.091 131.922C171.935 132.088 170.971 132.253 170.007 132.254 155.881 132.27 141.753 132.264 127.626 132.265 126.489 132.265 125.366 132.239 124.253 131.91 122.636 131.43 121.746 130.312 121.717 128.728 121.688 127.149 122.534 125.951 124.1 125.404 125.34 124.97 126.627 124.844 127.936 124.844 141.982 124.84 156.028 124.828 170.074 124.823 170.641 124.823 171.213 124.831 171.776 124.898 173.599 125.115 175.136 125.856 175.571 127.78 176.008 129.716 175.061 131.059 173.091 131.922" stroke="#000000" stroke-width="0.487633" transform="matrix(1.0025 0 0 1 -70.4314 -121.682)"/><path d="M357.471 266.505C355.672 267.11 353.309 266.659 353.586 269.631 353.705 270.905 354.066 271.664 355.44 271.583 357.432 271.466 358.525 272.375 358.486 274.743 360.434 273.348 361.746 274.181 363.024 275.313 364.421 276.547 365.91 277.676 367.105 279.133 368.141 280.398 367.881 281.502 366.809 282.564 365.551 283.811 364.691 282.982 363.751 282.06 361.904 280.243 360.016 278.466 358.091 276.731 356.909 275.668 355.524 276.189 353.976 276.369 354.614 278.595 356.272 279.977 357.466 281.604 358.678 283.257 358.33 284.411 356.964 285.567 355.409 286.885 354.944 285.117 353.64 284.155 353.64 287.261 353.642 290.026 353.64 292.792 353.639 293.928 353.618 295.065 353.627 296.201 353.639 297.653 353.059 298.502 351.487 298.524 349.877 298.547 349.057 297.828 349.058 296.202 349.061 292.553 349.059 288.905 349.059 284.6 347.931 286.103 347.16 287.143 346.377 288.171 345.693 289.068 345.236 290.79 343.697 289.629 342.419 288.664 341.797 287.173 342.896 285.558 344.172 283.682 345.492 281.835 346.747 279.945 347.371 279.004 347.909 278 347.854 276.789 346.9 275.812 345.691 276.22 344.612 276.208 343.078 276.19 342.342 275.503 342.339 274.014 342.337 272.582 342.996 271.706 344.513 271.648 345.486 271.611 346.459 271.563 347.433 271.554 348.733 271.543 349.086 270.803 349.026 269.646 348.957 268.348 348.083 268.209 347.145 268.403 345.4 268.765 343.938 268.748 343.193 266.72 342.682 265.331 342.963 264.468 344.492 264.298 348.279 263.876 352.072 263.546 355.739 262.386 356.952 262.002 357.705 262.773 358.233 263.816 358.769 264.872 359.008 265.82 357.471 266.505" stroke="#000000" stroke-width="0.487633" transform="matrix(1.0025 0 0 1 -70.4314 -121.682)"/><path d="M373.521 264.117C373.56 270.805 373.56 277.278 373.56 283.827 375.413 284.084 377.318 283.914 376.999 286.405 376.875 287.369 376.6 288.286 375.601 288.453 373.612 288.787 373.514 290.107 373.594 291.676 373.66 292.971 373.596 294.272 373.612 295.57 373.631 297.152 373.479 298.535 371.356 298.532 369.141 298.528 368.921 297.126 368.979 295.419 369.023 294.122 368.968 292.822 369.008 291.524 369.051 290.154 368.404 289.563 367.075 289.732 364.824 290.021 362.581 290.369 360.328 290.642 358.873 290.818 357.49 290.791 357.293 288.81 357.104 286.894 358.139 286.245 359.871 286.073 362.206 285.84 364.532 285.487 366.854 285.135 367.949 284.969 368.968 284.565 368.978 283.213 369.005 279.43 368.988 275.645 368.988 271.779 367.532 271.959 367.252 273.715 365.941 273.457 364.566 273.186 363.932 271.893 362.986 271.034 362.027 270.163 361.111 269.245 360.143 268.386 359.12 267.478 358.863 266.564 359.903 265.488 360.847 264.511 361.805 263.943 363.032 265.061 364.807 266.677 366.597 268.276 368.541 270.028 369.332 268.225 368.892 266.601 368.982 265.032 369.043 263.953 369.004 262.821 370.325 262.481 371.711 262.123 372.926 262.33 373.521 264.117" stroke="#000000" stroke-width="0.487633" transform="matrix(1.0025 0 0 1 -70.4314 -121.682)"/><path d="M316.046 293.015C316.046 293.816 316.068 294.384 316.039 294.949 315.994 295.825 316.122 296.853 315.06 297.221 313.955 297.604 312.776 297.65 311.875 296.739 310.344 295.191 309.227 295.009 308.425 297.406 308.004 298.665 306.809 298.582 305.739 298.436 304.676 298.291 304.226 297.548 304.218 296.555 304.19 292.913 304.187 289.271 304.192 285.629 304.194 284.374 304.773 283.667 306.112 283.678 308.701 283.7 311.292 283.71 313.882 283.69 315.46 283.677 316.029 284.54 316.029 285.981 316.029 288.247 316.039 290.513 316.046 293.015M308.853 288.778C308.764 289.636 308.422 290.577 309.28 291.218 309.743 291.564 310.37 291.526 310.873 291.198 311.594 290.73 311.609 289.949 311.448 289.254 311.096 287.736 310.213 287.527 308.853 288.778" stroke="#000000" stroke-width="0.487633" transform="matrix(1.0025 0 0 1 -70.4314 -121.682)"/><path d="M307.42 265.049C307.547 263.281 308.591 262.581 309.965 262.354 311.281 262.138 311.811 263.226 312.239 264.162 312.742 265.259 313.458 265.753 314.669 265.748 316.233 265.742 316.711 266.736 316.696 268.16 316.679 269.734 315.862 270.271 314.387 270.25 311.559 270.209 308.729 270.227 305.9 270.246 304.438 270.255 303.356 269.855 303.217 268.159 303.077 266.45 304.041 265.861 305.54 265.745 306.172 265.697 306.851 265.775 307.42 265.049" stroke="#000000" stroke-width="0.487633" transform="matrix(1.0025 0 0 1 -70.4314 -121.682)"/><path d="M308.74 271.596C310.595 271.605 312.218 271.585 313.839 271.634 315.34 271.68 316.043 272.554 315.98 274.005 315.921 275.355 315.182 276.074 313.797 276.075 311.444 276.077 309.091 276.078 306.739 276.092 305.369 276.101 304.305 275.718 304.222 274.121 304.139 272.501 305.015 271.742 306.563 271.653 307.21 271.616 307.86 271.614 308.74 271.596" stroke="#000000" stroke-width="0.487633" transform="matrix(1.0025 0 0 1 -70.4314 -121.682)"/><path d="M276.006 268.191C273.102 268.219 270.19 268.254 267.278 268.289 265.875 268.307 264.898 267.787 264.819 266.244 264.736 264.622 265.624 263.852 267.169 263.811 269.11 263.761 271.053 263.749 272.994 263.761 276.1 263.78 276.764 264.677 276.029 268.032 275.983 268.212 275.998 268.199 276.006 268.191" stroke="#000000" stroke-width="0.487633" transform="matrix(1.0025 0 0 1 -70.4314 -121.682)"/><path d="M310.133 277.804C311.587 277.806 312.803 277.791 314.019 277.811 315.298 277.833 315.969 278.527 315.979 279.788 315.988 281.036 315.338 281.806 314.07 281.833 311.477 281.887 308.883 281.898 306.29 281.869 304.94 281.854 304.176 281.147 304.226 279.731 304.273 278.44 304.98 277.834 306.248 277.829 307.464 277.824 308.679 277.813 310.133 277.804" stroke="#000000" stroke-width="0.487633" transform="matrix(1.0025 0 0 1 -70.4314 -121.682)"/></g></svg>
