<svg width="945" height="189" xmlns="http://www.w3.org/2000/svg" xmlns:xlink="http://www.w3.org/1999/xlink" overflow="hidden"><defs><clipPath id="clip0"><rect x="0" y="0" width="945" height="189"/></clipPath><clipPath id="clip1"><rect x="15" y="2" width="295" height="184"/></clipPath><clipPath id="clip2"><rect x="15" y="2" width="295" height="184"/></clipPath><clipPath id="clip3"><rect x="15" y="2" width="295" height="184"/></clipPath></defs><g clip-path="url(#clip0)"><rect x="0" y="0" width="945" height="188.967" fill="#FFFFFF"/><g clip-path="url(#clip1)"><g clip-path="url(#clip2)"><g clip-path="url(#clip3)"><path d="M212.959 258.98C196.431 241.914 180.026 224.97 163.399 207.795 162.699 209.31 162.909 210.453 162.908 211.544 162.898 242.096 162.904 272.647 162.907 303.2 162.907 306.774 160.012 308.497 156.797 306.869 156.103 306.518 155.918 305.962 155.893 305.288 155.865 304.557 155.871 303.825 155.871 303.094 155.869 263.929 155.871 224.765 155.852 185.6 155.852 184.67 156.153 183.66 155.479 182.78 154.309 182.824 153.835 183.79 153.193 184.453 137.832 200.32 122.491 216.207 107.139 232.084 102.344 237.042 97.5235 241.976 92.7285 246.934 91.9319 247.758 91.1245 248.576 90.0777 249.048 88.7433 249.65 87.3533 249.755 86.2163 248.657 85.114 247.591 84.9721 246.252 85.4972 244.827 85.9589 243.573 86.8233 242.61 87.7302 241.673 103.691 225.17 119.651 208.665 135.61 192.158 139.218 188.426 142.816 184.683 146.419 180.945 146.863 180.485 147.389 180.084 147.622 178.964L144.035 178.964C130.221 178.973 116.408 178.979 102.595 178.993 101.291 178.994 99.9983 178.978 98.7385 178.567 97.3509 178.115 96.585 177.165 96.4197 175.736 96.254 174.297 96.8307 173.228 98.0667 172.466 99.4513 171.613 100.967 171.539 102.529 171.54 119.105 171.551 135.681 171.548 152.257 171.541 155.863 171.54 155.866 171.525 155.866 167.88 155.866 161.949 155.781 156.016 155.905 150.086 155.95 147.951 155.295 147.295 153.141 147.306 136.728 147.386 120.314 147.346 103.901 147.361 102.426 147.362 101.031 147.185 99.6122 146.684 98.1749 146.177 97.4426 145.295 97.3509 143.873 97.2525 142.342 97.9852 141.209 99.3596 140.546 100.552 139.971 101.839 139.837 103.157 139.838 121.358 139.849 139.559 139.835 157.76 139.856 162.356 139.862 163.318 141.383 163.052 145.963 162.723 151.622 162.973 157.314 162.973 163.145 164.296 163.068 164.912 162.182 165.612 161.475 176.193 150.809 186.766 140.136 197.34 129.464 197.512 129.291 197.661 129.095 197.842 128.933 200.007 126.988 201.835 126.692 203.217 128.052 204.758 129.568 204.562 132.215 202.648 134.156 191.141 145.824 179.731 157.591 168.02 169.052 164.427 172.568 162.193 175.989 162.8 181.263 163.298 185.594 162.955 190.028 162.883 194.414 162.852 196.242 163.413 197.621 164.712 198.958 182.698 217.458 200.637 236.004 218.581 254.545 227.721 263.99 236.851 273.443 245.973 282.905 247.091 284.064 248.311 285.166 248.319 287.01 248.331 289.591 246.334 291.068 243.898 290.207 242.704 289.786 241.869 288.896 241.019 288.017 231.669 278.335 222.315 268.657 212.959 258.981" transform="matrix(1.00268 0 0 1 -70.4313 -121.66)"/><path d="M295.941 133.638C320.637 133.63 345.09 133.622 369.543 133.616 370.757 133.616 371.971 133.545 373.119 134.127 374.708 134.931 375.747 136.11 375.56 137.955 375.359 139.93 373.928 140.861 372.171 141.302 371.477 141.476 370.718 141.413 369.988 141.413 350.41 141.405 330.832 141.392 311.253 141.378 308.291 141.375 308.123 141.529 308.122 144.574 308.108 178.531 308.098 212.488 308.092 246.446 308.092 249.413 308.2 249.512 311.306 249.512 331.94 249.511 352.574 249.507 373.209 249.507 374.021 249.507 374.882 249.367 375.635 249.586 377.439 250.11 379.309 250.723 379.412 253.088 379.497 255.023 377.743 256.745 375.468 257.005 374.746 257.087 374.008 257.044 373.277 257.044 337.126 257.044 300.975 257.043 264.824 257.04 264.256 257.04 263.683 257.066 263.12 257.009 260.548 256.749 258.76 255.149 258.818 253.189 258.872 251.392 260.685 249.811 263.074 249.538 263.797 249.456 264.535 249.504 265.266 249.504 276.233 249.506 287.201 249.441 298.167 249.563 300.631 249.59 301.346 248.856 301.341 246.389 301.265 212.431 301.264 178.473 301.329 144.516 301.334 142.035 300.542 141.331 298.108 141.342 280.237 141.43 262.364 141.392 244.492 141.387 243.356 141.387 242.208 141.423 241.086 141.286 238.475 140.966 236.898 139.522 236.94 137.625 236.981 135.751 238.937 134.012 241.359 133.855 243.626 133.708 245.902 133.651 248.174 133.649 264.015 133.631 279.856 133.639 295.941 133.638" transform="matrix(1.00268 0 0 1 -70.4313 -121.66)"/><path d="M275.935 268.165C277.69 267.048 278.88 265.406 280.074 263.758 281.442 261.87 282.873 261.63 284.459 263.359 285.433 264.421 286.448 264.6 287.683 264.601 290.526 264.603 293.369 264.629 296.213 264.614 298.299 264.602 298.939 265.686 298.582 267.597 298.216 269.551 296.94 270.955 295.535 272.158 294.418 273.115 292.236 271.902 292.062 270.364 292 269.821 292.535 269.296 292.119 268.707 291.567 268.259 290.881 268.542 290.256 268.451 289.795 268.383 289.315 268.438 288.704 268.438 288.809 270.301 289.618 271.43 291.191 272.031 293.084 272.756 294.972 273.497 296.878 274.189 297.774 274.513 299.007 274.545 298.79 275.911 298.575 277.262 297.861 278.593 296.298 278.4 294.246 278.146 294.204 279.258 294.22 280.693 294.254 283.779 294.207 286.865 294.277 289.95 294.307 291.283 294.587 292.629 292.823 293.247 294.218 293.601 295.634 293.885 296.998 294.332 297.882 294.621 299.036 294.928 298.604 296.299 298.222 297.507 297.57 298.724 296.083 298.478 292.971 297.962 289.876 297.315 286.806 296.589 284.681 296.086 286.246 294.458 286.096 293.279 283.875 292.696 281.688 293.105 279.304 292.91 279.544 294.759 278.373 295.34 276.933 295.882 274.115 296.943 271.236 297.759 268.302 298.398 266.93 298.698 265.724 298.494 265.033 297.024 264.42 295.719 264.621 294.825 266.126 294.461 267.618 294.1 269.112 293.749 271.155 293.263 269.221 292.751 269.076 291.616 269.086 290.351 269.116 286.858 269.174 283.363 269.087 279.872 269.03 277.607 269.834 276.535 272.224 276.764 273.231 276.86 274.331 277.029 275.318 276.425 275.663 274.933 274.844 274.522 273.594 274.519 271.4 274.512 269.207 274.519 267.013 274.52 265.477 274.521 264.569 273.914 264.547 272.22 264.526 270.47 265.469 269.984 267.014 270.009 269.288 270.046 271.563 269.999 273.838 270.024 274.932 270.036 275.783 269.801 275.918 268.331 275.95 268.151 275.935 268.165 275.935 268.165M283.981 268.444C282.584 268.092 281.721 268.862 280.875 269.822 279.808 271.031 278.745 272.411 276.822 271.099 276.593 272.179 276.424 272.955 277.171 273.875 279.988 272.778 283.017 271.998 283.981 268.444M274.8 289.265C279.489 289.687 284.165 289.366 288.849 289.084 285.098 288.692 281.345 288.641 277.595 288.725 276.594 288.748 275.458 288.2 274.801 289.265M284.441 285.163 288.752 285.163 288.709 284.6 274.853 284.6 274.849 285.165C277.888 285.165 280.927 285.165 284.441 285.163M284.55 275.022C283.943 275.452 283.135 275.695 282.855 276.705 285.323 276.839 287.584 276.978 289.852 276.418 288.192 275.766 287.14 273.285 284.55 275.022M278.216 280.357 274.524 280.357 274.547 280.842 288.59 280.842 288.585 280.355C285.285 280.355 281.984 280.355 278.216 280.357" transform="matrix(1.00268 0 0 1 -70.4313 -121.66)"/><path d="M320.204 285.301C320.288 283.393 320.401 281.814 317.972 281.619 316.786 281.523 316.729 280.303 316.747 279.289 316.765 278.293 317.105 277.437 318.2 277.386 320.015 277.302 320.255 276.199 320.209 274.744 320.162 273.286 320.169 271.824 320.211 270.364 320.254 268.841 320.33 267.454 318.205 267.187 317.127 267.052 317.13 265.905 317.168 264.995 317.208 264.039 317.785 263.414 318.69 263.402 322.985 263.342 327.284 263.276 331.576 263.393 333.115 263.435 333.04 264.87 333.042 266.017 333.049 271.777 333 277.537 333.074 283.296 333.101 285.452 333.404 287.604 333.585 289.798 334.23 289.622 334.225 289.267 334.282 288.958 334.447 288.058 334.165 286.767 335.668 286.884 337.071 286.994 338.302 287.742 338.325 289.25 338.371 292.213 337.632 295.04 335.976 297.542 335.245 298.648 334.016 298.703 332.897 298.388 331.434 297.975 330.858 296.76 330.409 295.358 329.128 291.365 328.777 287.285 328.922 283.131 328.935 282.741 328.836 282.348 328.793 281.985 325.053 281.501 324.757 281.75 324.759 285.276 324.76 288.764 324.75 292.253 324.774 295.741 324.784 297.306 324.428 298.49 322.521 298.463 320.696 298.437 320.189 297.366 320.202 295.753 320.228 292.346 320.206 288.939 320.204 285.301M326.421 267.368C325.136 267.303 324.738 268.042 324.749 269.184 324.764 270.715 324.753 272.245 324.759 273.776 324.776 277.47 324.795 277.486 328.894 277.204 328.894 274.443 328.932 271.651 328.877 268.86 328.852 267.568 327.854 267.382 326.421 267.368" transform="matrix(1.00268 0 0 1 -70.4313 -121.66)"/><path d="M173.06 131.899C171.905 132.065 170.941 132.23 169.977 132.231 155.853 132.247 141.728 132.24 127.604 132.241 126.466 132.241 125.344 132.216 124.231 131.886 122.614 131.407 121.725 130.289 121.696 128.705 121.666 127.127 122.512 125.929 124.078 125.381 125.318 124.948 126.605 124.822 127.913 124.822 141.957 124.818 156 124.806 170.044 124.801 170.611 124.801 171.183 124.809 171.745 124.876 173.568 125.093 175.105 125.833 175.54 127.757 175.977 129.693 175.03 131.036 173.06 131.899" transform="matrix(1.00268 0 0 1 -70.4313 -121.66)"/><path d="M357.409 266.458C355.609 267.063 353.247 266.612 353.524 269.584 353.643 270.857 354.003 271.616 355.377 271.535 357.369 271.418 358.462 272.327 358.423 274.695 360.371 273.3 361.682 274.133 362.96 275.264 364.357 276.499 365.846 277.627 367.04 279.084 368.077 280.349 367.816 281.453 366.744 282.514 365.486 283.761 364.627 282.932 363.687 282.01 361.84 280.193 359.953 278.417 358.028 276.682 356.846 275.62 355.462 276.141 353.913 276.32 354.551 278.546 356.21 279.928 357.403 281.554 358.615 283.207 358.267 284.361 356.901 285.517 355.346 286.834 354.881 285.067 353.578 284.105 353.578 287.21 353.579 289.975 353.577 292.74 353.576 293.876 353.556 295.013 353.565 296.149 353.577 297.601 352.997 298.449 351.425 298.472 349.815 298.495 348.996 297.776 348.997 296.15 348.999 292.502 348.998 288.855 348.998 284.55 347.87 286.053 347.099 287.092 346.316 288.12 345.632 289.017 345.175 290.738 343.637 289.578 342.358 288.613 341.737 287.122 342.836 285.508 344.112 283.632 345.431 281.785 346.686 279.895 347.31 278.954 347.848 277.952 347.793 276.74 346.839 275.763 345.63 276.171 344.551 276.16 343.018 276.142 342.281 275.454 342.279 273.966 342.277 272.534 342.936 271.658 344.452 271.6 345.425 271.563 346.398 271.515 347.372 271.507 348.671 271.495 349.025 270.756 348.964 269.598 348.896 268.301 348.022 268.162 347.084 268.356 345.339 268.717 343.878 268.7 343.132 266.673 342.622 265.284 342.903 264.422 344.431 264.251 348.217 263.829 352.01 263.5 355.676 262.34 356.889 261.956 357.642 262.727 358.17 263.769 358.705 264.825 358.944 265.774 357.409 266.458" transform="matrix(1.00268 0 0 1 -70.4313 -121.66)"/><path d="M373.455 264.07C373.494 270.757 373.494 277.229 373.494 283.777 375.347 284.034 377.252 283.864 376.932 286.355 376.809 287.319 376.534 288.235 375.535 288.403 373.546 288.737 373.448 290.056 373.528 291.625 373.594 292.919 373.53 294.22 373.546 295.518 373.565 297.099 373.414 298.483 371.291 298.479 369.076 298.476 368.856 297.074 368.914 295.367 368.958 294.07 368.903 292.771 368.943 291.473 368.986 290.103 368.339 289.512 367.011 289.681 364.76 289.97 362.517 290.318 360.264 290.591 358.81 290.767 357.427 290.739 357.231 288.759 357.041 286.843 358.075 286.195 359.807 286.022 362.143 285.79 364.468 285.437 366.79 285.084 367.884 284.919 368.903 284.515 368.913 283.163 368.94 279.381 368.923 275.597 368.923 271.731 367.467 271.911 367.188 273.667 365.876 273.409 364.502 273.137 363.868 271.845 362.922 270.986 361.964 270.115 361.048 269.198 360.079 268.339 359.056 267.431 358.8 266.517 359.839 265.441 360.783 264.464 361.741 263.896 362.968 265.014 364.743 266.63 366.532 268.229 368.476 269.98 369.267 268.178 368.827 266.554 368.917 264.986 368.978 263.907 368.939 262.775 370.26 262.434 371.645 262.077 372.86 262.284 373.455 264.071" transform="matrix(1.00268 0 0 1 -70.4313 -121.66)"/><path d="M315.99 292.963C315.99 293.764 316.012 294.332 315.983 294.897 315.938 295.773 316.066 296.801 315.004 297.169 313.899 297.552 312.72 297.597 311.82 296.686 310.29 295.139 309.172 294.957 308.371 297.353 307.949 298.612 306.755 298.53 305.686 298.384 304.622 298.238 304.172 297.496 304.164 296.503 304.137 292.861 304.134 289.22 304.139 285.578 304.14 284.324 304.72 283.617 306.058 283.628 308.647 283.65 311.237 283.66 313.826 283.64 315.405 283.627 315.973 284.49 315.973 285.93 315.973 288.196 315.983 290.462 315.99 292.963M308.799 288.727C308.71 289.585 308.368 290.525 309.225 291.166 309.688 291.513 310.315 291.475 310.819 291.147 311.539 290.679 311.554 289.898 311.393 289.203 311.041 287.685 310.158 287.476 308.799 288.727" transform="matrix(1.00268 0 0 1 -70.4313 -121.66)"/><path d="M307.366 265.002C307.492 263.234 308.536 262.534 309.911 262.308 311.227 262.092 311.756 263.18 312.184 264.115 312.687 265.212 313.403 265.706 314.614 265.701 316.178 265.695 316.655 266.689 316.64 268.113 316.623 269.686 315.806 270.223 314.332 270.202 311.504 270.161 308.675 270.18 305.847 270.198 304.384 270.208 303.302 269.808 303.164 268.111 303.023 266.403 303.988 265.814 305.486 265.698 306.119 265.65 306.797 265.728 307.366 265.002" transform="matrix(1.00268 0 0 1 -70.4313 -121.66)"/><path d="M308.686 271.548C310.54 271.557 312.163 271.537 313.784 271.587 315.284 271.632 315.987 272.506 315.924 273.957 315.866 275.307 315.126 276.025 313.742 276.027 311.389 276.029 309.037 276.03 306.685 276.044 305.315 276.052 304.251 275.669 304.169 274.073 304.085 272.453 304.962 271.694 306.509 271.606 307.156 271.569 307.805 271.567 308.686 271.548" transform="matrix(1.00268 0 0 1 -70.4313 -121.66)"/><path d="M275.957 268.144C273.054 268.172 270.142 268.206 267.231 268.242 265.829 268.26 264.852 267.74 264.773 266.197 264.69 264.575 265.578 263.805 267.122 263.765 269.063 263.714 271.005 263.702 272.946 263.715 276.052 263.734 276.716 264.631 275.981 267.985 275.935 268.165 275.95 268.151 275.957 268.144" transform="matrix(1.00268 0 0 1 -70.4313 -121.66)"/><path d="M310.078 277.756C311.532 277.757 312.748 277.742 313.963 277.762 315.242 277.784 315.913 278.478 315.923 279.738 315.932 280.987 315.282 281.756 314.014 281.783 311.423 281.838 308.829 281.848 306.237 281.819 304.887 281.805 304.123 281.098 304.173 279.681 304.219 278.391 304.926 277.785 306.194 277.78 307.41 277.775 308.625 277.764 310.078 277.756" transform="matrix(1.00268 0 0 1 -70.4313 -121.66)"/></g></g></g><text font-family="Microsoft JhengHei,Microsoft JhengHei_MSFontService,sans-serif" font-weight="700" font-size="72" transform="matrix(1 0 0 0.999824 337.917 77)">永靖高工</text><text font-family="Microsoft JhengHei,Microsoft JhengHei_MSFontService,sans-serif" font-weight="700" font-size="72" transform="matrix(1 0 0 0.999824 643.971 77)">資訊科</text><text font-family="Microsoft JhengHei,Microsoft JhengHei_MSFontService,sans-serif" font-weight="700" font-size="72" transform="matrix(1 0 0 0.999824 337.917 163)">Yjvs</text><text font-family="Microsoft JhengHei,Microsoft JhengHei_MSFontService,sans-serif" font-weight="700" font-size="72" transform="matrix(1 0 0 0.999824 493.444 163)">Information</text></g></svg>