<svg width="945" height="189" xmlns="http://www.w3.org/2000/svg" xmlns:xlink="http://www.w3.org/1999/xlink" overflow="hidden"><defs><clipPath id="clip0"><rect x="0" y="0" width="945" height="189"/></clipPath><clipPath id="clip1"><rect x="12" y="15" width="253" height="158"/></clipPath><clipPath id="clip2"><rect x="12" y="15" width="253" height="158"/></clipPath><clipPath id="clip3"><rect x="12" y="15" width="253" height="158"/></clipPath></defs><g clip-path="url(#clip0)"><rect x="0" y="0" width="945" height="188.967" fill="none"/><g clip-path="url(#clip1)"><g clip-path="url(#clip2)"><g clip-path="url(#clip3)"><path d="M182.404 221.823C168.248 207.205 154.197 192.692 139.956 177.982 139.356 179.279 139.536 180.258 139.535 181.193 139.526 207.361 139.531 233.529 139.533 259.698 139.533 262.76 137.055 264.236 134.3 262.841 133.706 262.541 133.547 262.064 133.526 261.487 133.503 260.861 133.507 260.234 133.507 259.607 133.505 226.062 133.507 192.516 133.491 158.971 133.491 158.174 133.749 157.309 133.171 156.556 132.169 156.594 131.764 157.42 131.214 157.988 118.057 171.579 104.916 185.187 91.7672 198.785 87.6601 203.032 83.5313 207.258 79.4243 211.505 78.7419 212.211 78.0504 212.912 77.1538 213.316 76.0108 213.831 74.8203 213.922 73.8464 212.981 72.9023 212.068 72.7807 210.921 73.2305 209.7 73.626 208.626 74.3663 207.802 75.1431 206.999 88.8143 192.863 102.484 178.727 116.153 164.588 119.244 161.391 122.325 158.185 125.411 154.984 125.792 154.589 126.243 154.247 126.442 153.287L123.37 153.287C111.538 153.295 99.7065 153.3 87.8752 153.312 86.7585 153.312 85.651 153.299 84.572 152.947 83.3835 152.56 82.7275 151.746 82.5859 150.522 82.4439 149.289 82.9379 148.374 83.9965 147.722 85.1825 146.99 86.4808 146.927 87.8188 146.928 102.016 146.937 116.214 146.935 130.412 146.929 133.501 146.928 133.503 146.916 133.503 143.794 133.503 138.713 133.43 133.631 133.537 128.553 133.575 126.724 133.014 126.162 131.169 126.171 117.111 126.24 103.052 126.206 88.9939 126.218 87.7307 126.219 86.5355 126.068 85.3203 125.639 84.0892 125.204 83.462 124.449 83.3835 123.231 83.2991 121.919 83.9268 120.949 85.104 120.381 86.1254 119.889 87.2275 119.774 88.3562 119.775 103.946 119.784 119.536 119.772 135.125 119.79 139.062 119.795 139.886 121.098 139.658 125.021 139.376 129.868 139.591 134.744 139.591 139.738 140.724 139.672 141.251 138.913 141.851 138.307 150.914 129.172 159.97 120.03 169.027 110.889 169.174 110.741 169.301 110.573 169.456 110.434 171.311 108.769 172.876 108.514 174.061 109.68 175.38 110.978 175.212 113.246 173.573 114.908 163.717 124.902 153.944 134.981 143.914 144.797 140.836 147.809 138.923 150.739 139.442 155.256 139.869 158.965 139.575 162.764 139.513 166.521 139.487 168.086 139.967 169.267 141.08 170.413 156.485 186.258 171.85 202.143 187.22 218.024 195.048 226.114 202.869 234.21 210.682 242.315 211.639 243.308 212.685 244.252 212.692 245.831 212.702 248.042 210.991 249.307 208.905 248.57 207.882 248.209 207.167 247.447 206.439 246.694 198.43 238.401 190.418 230.111 182.404 221.823" stroke="#FFFFFF" stroke-width="0.417596" fill="#FFFFFF" transform="matrix(1 0 0 1.00163 -60.9787 -90.9514)"/><path d="M253.481 114.464C274.634 114.458 295.578 114.451 316.522 114.446 317.562 114.446 318.602 114.385 319.586 114.883 320.947 115.571 321.837 116.582 321.676 118.162 321.505 119.853 320.279 120.651 318.774 121.029 318.179 121.178 317.529 121.124 316.904 121.124 300.135 121.117 283.366 121.105 266.596 121.094 264.059 121.092 263.915 121.223 263.914 123.831 263.902 152.916 263.894 182.002 263.888 211.087 263.888 213.628 263.981 213.714 266.641 213.714 284.315 213.713 301.989 213.709 319.663 213.709 320.358 213.709 321.095 213.589 321.741 213.776 323.286 214.226 324.888 214.75 324.976 216.776 325.049 218.434 323.546 219.908 321.598 220.131 320.979 220.202 320.347 220.165 319.721 220.165 288.757 220.165 257.793 220.164 226.829 220.161 226.342 220.161 225.851 220.183 225.369 220.135 223.165 219.912 221.635 218.541 221.684 216.863 221.73 215.324 223.283 213.969 225.33 213.736 225.949 213.665 226.581 213.706 227.207 213.706 236.6 213.708 245.995 213.652 255.387 213.757 257.498 213.78 258.111 213.151 258.106 211.038 258.041 181.952 258.04 152.867 258.096 123.782 258.1 121.656 257.422 121.053 255.337 121.063 240.03 121.138 224.721 121.105 209.413 121.101 208.44 121.101 207.458 121.133 206.496 121.015 204.26 120.741 202.909 119.504 202.945 117.879 202.981 116.274 204.655 114.785 206.73 114.65 208.672 114.524 210.621 114.476 212.567 114.474 226.135 114.458 239.704 114.465 253.481 114.464" stroke="#FFFFFF" stroke-width="0.417596" fill="#FFFFFF" transform="matrix(1 0 0 1.00163 -60.9787 -90.9514)"/><path d="M236.345 229.69C237.848 228.734 238.868 227.327 239.891 225.915 241.062 224.298 242.288 224.093 243.646 225.574 244.48 226.483 245.35 226.636 246.408 226.637 248.843 226.639 251.278 226.661 253.713 226.648 255.5 226.639 256.049 227.567 255.743 229.203 255.43 230.877 254.336 232.08 253.133 233.11 252.177 233.929 250.308 232.89 250.158 231.573 250.105 231.108 250.563 230.658 250.207 230.154 249.734 229.771 249.147 230.013 248.612 229.935 248.216 229.877 247.806 229.923 247.282 229.923 247.372 231.52 248.065 232.486 249.412 233.001 251.034 233.622 252.651 234.257 254.283 234.849 255.051 235.127 256.107 235.154 255.921 236.325 255.737 237.482 255.126 238.622 253.787 238.456 252.029 238.239 251.993 239.192 252.007 240.42 252.036 243.063 251.996 245.707 252.056 248.349 252.081 249.491 252.321 250.644 250.81 251.174 252.005 251.476 253.218 251.719 254.386 252.102 255.143 252.35 256.132 252.613 255.761 253.788 255.434 254.822 254.876 255.865 253.602 255.654 250.937 255.212 248.286 254.658 245.657 254.036 243.836 253.605 245.177 252.211 245.048 251.2 243.146 250.701 241.273 251.052 239.231 250.885 239.436 252.468 238.434 252.966 237.2 253.43 234.786 254.339 232.32 255.038 229.808 255.585 228.632 255.842 227.599 255.667 227.007 254.408 226.482 253.29 226.655 252.525 227.944 252.213 229.221 251.904 230.501 251.603 232.251 251.187 230.595 250.748 230.47 249.776 230.479 248.693 230.505 245.701 230.554 242.708 230.48 239.718 230.431 237.778 231.119 236.859 233.167 237.055 234.029 237.138 234.971 237.282 235.817 236.765 236.112 235.487 235.411 235.135 234.34 235.132 232.461 235.127 230.582 235.132 228.704 235.133 227.387 235.134 226.61 234.614 226.591 233.163 226.573 231.664 227.381 231.248 228.704 231.27 230.652 231.301 232.601 231.261 234.549 231.282 235.486 231.293 236.215 231.091 236.331 229.832 236.358 229.678 236.345 229.69 236.345 229.69M243.237 229.929C242.04 229.627 241.301 230.287 240.577 231.109 239.663 232.145 238.752 233.326 237.105 232.203 236.909 233.128 236.764 233.792 237.404 234.58 239.817 233.641 242.411 232.973 243.237 229.929M235.373 247.762C239.389 248.124 243.395 247.849 247.406 247.608 244.194 247.272 240.979 247.229 237.767 247.3 236.909 247.32 235.937 246.85 235.374 247.762M243.631 244.249 247.323 244.249 247.286 243.767 235.418 243.767 235.415 244.251C238.018 244.251 240.621 244.251 243.631 244.249M243.724 235.563C243.204 235.931 242.512 236.139 242.272 237.005 244.386 237.12 246.323 237.239 248.265 236.759 246.844 236.201 245.943 234.076 243.724 235.563M238.299 240.133 235.137 240.133 235.156 240.548 247.185 240.548 247.181 240.131C244.353 240.131 241.526 240.131 238.299 240.133" stroke="#FFFFFF" stroke-width="0.417596" fill="#FFFFFF" transform="matrix(1 0 0 1.00163 -60.9787 -90.9514)"/><path d="M274.263 244.368C274.334 242.733 274.431 241.381 272.351 241.214 271.335 241.132 271.286 240.087 271.302 239.218 271.317 238.365 271.609 237.631 272.546 237.588 274.1 237.516 274.306 236.572 274.267 235.325 274.227 234.076 274.233 232.824 274.268 231.574 274.305 230.269 274.371 229.081 272.55 228.853 271.627 228.737 271.63 227.754 271.663 226.975 271.697 226.156 272.191 225.621 272.966 225.61 276.645 225.559 280.327 225.503 284.003 225.603 285.321 225.638 285.257 226.868 285.259 227.85 285.265 232.784 285.223 237.717 285.286 242.65 285.309 244.497 285.569 246.34 285.723 248.219 286.276 248.069 286.272 247.764 286.321 247.5 286.462 246.729 286.22 245.623 287.508 245.724 288.71 245.817 289.764 246.459 289.784 247.75 289.823 250.287 289.19 252.709 287.772 254.852 287.145 255.799 286.093 255.847 285.134 255.576 283.881 255.223 283.388 254.182 283.003 252.982 281.907 249.562 281.605 246.067 281.73 242.508 281.741 242.174 281.656 241.838 281.619 241.527 278.416 241.113 278.163 241.325 278.164 244.346 278.165 247.334 278.157 250.322 278.177 253.309 278.186 254.65 277.881 255.664 276.247 255.641 274.684 255.619 274.25 254.701 274.261 253.32 274.283 250.402 274.264 247.484 274.263 244.368M279.588 229.007C278.487 228.952 278.146 229.584 278.156 230.563 278.169 231.874 278.159 233.185 278.165 234.496 278.178 237.66 278.195 237.674 281.706 237.432 281.706 235.067 281.738 232.676 281.692 230.285 281.67 229.179 280.815 229.019 279.588 229.007" stroke="#FFFFFF" stroke-width="0.417596" fill="#FFFFFF" transform="matrix(1 0 0 1.00163 -60.9787 -90.9514)"/><path d="M148.23 112.974C147.241 113.117 146.415 113.258 145.59 113.259 133.492 113.273 121.394 113.267 109.296 113.268 108.322 113.268 107.36 113.246 106.407 112.964 105.022 112.553 104.26 111.596 104.235 110.239 104.21 108.887 104.935 107.861 106.276 107.392 107.338 107.021 108.44 106.913 109.561 106.913 121.589 106.91 133.618 106.9 145.647 106.895 146.132 106.895 146.622 106.902 147.104 106.959 148.665 107.146 149.982 107.779 150.354 109.427 150.728 111.085 149.917 112.236 148.23 112.974" stroke="#FFFFFF" stroke-width="0.417596" fill="#FFFFFF" transform="matrix(1 0 0 1.00163 -60.9787 -90.9514)"/><path d="M306.129 228.228C304.588 228.746 302.565 228.36 302.802 230.905 302.904 231.996 303.213 232.646 304.389 232.577 306.095 232.477 307.032 233.255 306.998 235.283 308.667 234.089 309.789 234.802 310.884 235.771 312.081 236.828 313.356 237.795 314.379 239.042 315.267 240.126 315.044 241.071 314.125 241.981 313.048 243.048 312.312 242.339 311.507 241.548 309.925 239.992 308.309 238.471 306.66 236.985 305.648 236.075 304.462 236.521 303.136 236.675 303.682 238.581 305.102 239.765 306.124 241.158 307.163 242.574 306.865 243.562 305.695 244.552 304.363 245.681 303.964 244.167 302.848 243.343 302.848 246.003 302.849 248.371 302.848 250.739 302.847 251.712 302.829 252.686 302.837 253.659 302.847 254.902 302.351 255.629 301.004 255.649 299.625 255.668 298.924 255.052 298.924 253.66 298.927 250.535 298.925 247.411 298.925 243.724 297.959 245.012 297.299 245.901 296.628 246.782 296.043 247.55 295.651 249.025 294.333 248.031 293.238 247.204 292.706 245.927 293.647 244.545 294.74 242.938 295.87 241.356 296.945 239.737 297.48 238.931 297.94 238.072 297.893 237.035 297.076 236.198 296.041 236.548 295.116 236.538 293.803 236.522 293.172 235.933 293.17 234.659 293.169 233.432 293.733 232.682 295.032 232.632 295.865 232.6 296.699 232.56 297.533 232.552 298.646 232.542 298.948 231.909 298.897 230.918 298.838 229.806 298.089 229.687 297.286 229.853 295.791 230.163 294.54 230.148 293.901 228.412 293.464 227.222 293.705 226.484 295.014 226.338 298.257 225.976 301.505 225.694 304.646 224.701 305.685 224.371 306.329 225.032 306.782 225.925 307.24 226.829 307.445 227.642 306.129 228.228" stroke="#FFFFFF" stroke-width="0.417596" fill="#FFFFFF" transform="matrix(1 0 0 1.00163 -60.9787 -90.9514)"/><path d="M319.874 226.183C319.907 231.91 319.907 237.454 319.907 243.062 321.494 243.282 323.125 243.136 322.852 245.27 322.746 246.096 322.51 246.881 321.655 247.024 319.951 247.31 319.868 248.44 319.936 249.784 319.993 250.893 319.938 252.007 319.951 253.119 319.968 254.473 319.838 255.658 318.02 255.655 316.123 255.652 315.934 254.451 315.984 252.989 316.022 251.879 315.975 250.765 316.009 249.654 316.046 248.481 315.491 247.974 314.354 248.119 312.426 248.367 310.505 248.664 308.575 248.898 307.329 249.049 306.145 249.025 305.977 247.33 305.815 245.689 306.701 245.133 308.184 244.985 310.184 244.786 312.176 244.484 314.165 244.182 315.102 244.04 315.975 243.694 315.983 242.536 316.007 239.296 315.992 236.055 315.992 232.745 314.745 232.899 314.505 234.403 313.382 234.181 312.205 233.949 311.662 232.842 310.851 232.106 310.031 231.36 309.246 230.574 308.417 229.839 307.541 229.061 307.321 228.278 308.211 227.357 309.02 226.52 309.84 226.034 310.892 226.991 312.411 228.375 313.944 229.745 315.609 231.245 316.286 229.701 315.91 228.31 315.987 226.967 316.039 226.043 316.006 225.073 317.137 224.782 318.323 224.475 319.364 224.653 319.874 226.183" stroke="#FFFFFF" stroke-width="0.417596" fill="#FFFFFF" transform="matrix(1 0 0 1.00163 -60.9787 -90.9514)"/><path d="M270.653 250.93C270.653 251.616 270.672 252.103 270.647 252.587 270.609 253.337 270.718 254.217 269.809 254.533 268.863 254.861 267.853 254.899 267.082 254.119 265.771 252.794 264.814 252.638 264.127 254.691 263.766 255.769 262.744 255.698 261.827 255.573 260.917 255.449 260.531 254.813 260.524 253.962 260.501 250.843 260.498 247.724 260.502 244.605 260.504 243.531 261 242.925 262.146 242.934 264.364 242.953 266.582 242.962 268.8 242.944 270.152 242.934 270.639 243.672 270.639 244.906 270.639 246.847 270.647 248.788 270.653 250.93M264.494 247.302C264.418 248.037 264.125 248.842 264.859 249.391 265.256 249.688 265.792 249.655 266.224 249.375 266.841 248.974 266.854 248.305 266.716 247.709 266.414 246.409 265.658 246.231 264.494 247.302" stroke="#FFFFFF" stroke-width="0.417596" fill="#FFFFFF" transform="matrix(1 0 0 1.00163 -60.9787 -90.9514)"/><path d="M263.266 226.981C263.375 225.467 264.269 224.867 265.446 224.673 266.573 224.488 267.026 225.42 267.393 226.221 267.824 227.161 268.437 227.584 269.474 227.579 270.814 227.574 271.223 228.426 271.21 229.645 271.195 230.993 270.496 231.453 269.233 231.435 266.811 231.4 264.388 231.415 261.965 231.431 260.713 231.44 259.786 231.097 259.667 229.644 259.547 228.181 260.373 227.676 261.656 227.577 262.198 227.536 262.779 227.602 263.266 226.981" stroke="#FFFFFF" stroke-width="0.417596" fill="#FFFFFF" transform="matrix(1 0 0 1.00163 -60.9787 -90.9514)"/><path d="M264.397 232.588C265.985 232.595 267.376 232.578 268.764 232.621 270.049 232.66 270.651 233.408 270.597 234.651 270.547 235.807 269.914 236.422 268.728 236.424 266.713 236.425 264.698 236.426 262.683 236.438 261.51 236.446 260.599 236.118 260.528 234.75 260.456 233.363 261.207 232.713 262.532 232.637 263.087 232.605 263.643 232.604 264.397 232.588" stroke="#FFFFFF" stroke-width="0.417596" fill="#FFFFFF" transform="matrix(1 0 0 1.00163 -60.9787 -90.9514)"/><path d="M236.364 229.672C233.877 229.696 231.384 229.725 228.89 229.756 227.689 229.771 226.852 229.326 226.784 228.005 226.713 226.615 227.474 225.956 228.797 225.921 230.459 225.878 232.122 225.868 233.785 225.878 236.445 225.894 237.014 226.663 236.384 229.535 236.345 229.69 236.358 229.678 236.364 229.672" stroke="#FFFFFF" stroke-width="0.417596" fill="#FFFFFF" transform="matrix(1 0 0 1.00163 -60.9787 -90.9514)"/><path d="M265.59 237.905C266.835 237.906 267.876 237.893 268.917 237.91 270.013 237.929 270.588 238.523 270.596 239.603 270.604 240.672 270.047 241.331 268.961 241.354 266.741 241.401 264.52 241.41 262.299 241.385 261.143 241.373 260.489 240.767 260.532 239.554 260.571 238.449 261.177 237.93 262.263 237.925 263.304 237.921 264.345 237.912 265.59 237.905" stroke="#FFFFFF" stroke-width="0.417596" fill="#FFFFFF" transform="matrix(1 0 0 1.00163 -60.9787 -90.9514)"/></g></g></g><text fill="#FFFFFF" font-family="Microsoft JhengHei,Microsoft JhengHei_MSFontService,sans-serif" font-weight="700" font-size="80" transform="matrix(1 0 0 0.999824 286.558 107)">電子作業公告系統</text><text fill="#FFFFFF" font-family="Microsoft JhengHei,Microsoft JhengHei_MSFontService,sans-serif" font-weight="700" font-size="37" transform="matrix(1 0 0 0.999824 292.979 161)">Homework Announcement System</text></g></svg>